<mxfile host="app.diagrams.net" agent="Mozilla/5.0 (Windows NT 10.0; Win64; x64) AppleWebKit/537.36 (KHTML, like Gecko) Chrome/137.0.0.0 Safari/537.36 Edg/137.0.0.0" version="27.1.3">
  <diagram name="Sơ đồ Use Case" id="UC_Diagram_Page1">
    <mxGraphModel dx="286131" dy="130020" grid="0" gridSize="10" guides="1" tooltips="1" connect="1" arrows="1" fold="1" page="0" pageScale="1" pageWidth="2339" pageHeight="1654" background="#ffffff" math="0" shadow="0">
      <root>
        <mxCell id="0" />
        <mxCell id="1" parent="0" />
        <mxCell id="inc_QT_QLDanhMuc_Auth" value="&amp;lt;&amp;lt;include&amp;gt;&amp;gt;" style="edgeStyle=none;html=1;endArrow=open;dashed=1;endFill=0;align=center;verticalAlign=middle;fontSize=17;fontStyle=0" parent="1" source="uc_QT_QLDanhMuc" target="mXaBd0uo6MnOczMmo5w1-60" edge="1">
          <mxGeometry x="-0.7188" relative="1" as="geometry">
            <mxPoint x="2481" y="278" as="targetPoint" />
            <mxPoint as="offset" />
          </mxGeometry>
        </mxCell>
        <mxCell id="inc_KH_BaoCaoBL_Auth" value="&amp;lt;&amp;lt;include&amp;gt;&amp;gt;" style="edgeStyle=none;html=1;endArrow=open;dashed=1;endFill=0;align=center;verticalAlign=middle;fontSize=17;fontStyle=0" parent="1" source="uc_KH_BaoCaoBinhLuan" target="uc_Chung_DangNhap" edge="1">
          <mxGeometry relative="1" as="geometry" />
        </mxCell>
        <mxCell id="inc_KH_MiniGame_Auth" value="&amp;lt;&amp;lt;include&amp;gt;&amp;gt;" style="edgeStyle=none;html=1;endArrow=open;dashed=1;endFill=0;align=center;verticalAlign=middle;fontSize=17;fontStyle=0" parent="1" source="uc_KH_MiniGame" target="uc_Chung_DangNhap" edge="1">
          <mxGeometry relative="1" as="geometry" />
        </mxCell>
        <mxCell id="inc_KH_DanhGia_Auth" value="&amp;lt;&amp;lt;include&amp;gt;&amp;gt;" style="edgeStyle=none;html=1;endArrow=open;dashed=1;endFill=0;align=center;verticalAlign=middle;fontSize=17;fontStyle=0" parent="1" source="uc_KH_DanhGiaBinhLuan" target="uc_Chung_DangNhap" edge="1">
          <mxGeometry relative="1" as="geometry" />
        </mxCell>
        <mxCell id="inc_QT_QLSanPham_Auth" value="&amp;lt;&amp;lt;include&amp;gt;&amp;gt;" style="edgeStyle=none;html=1;endArrow=open;dashed=1;endFill=0;align=center;verticalAlign=middle;fontSize=17;fontStyle=0" parent="1" source="uc_QT_QLSanPham" target="mXaBd0uo6MnOczMmo5w1-60" edge="1">
          <mxGeometry x="-0.2236" y="2" relative="1" as="geometry">
            <mxPoint x="2533" y="332" as="targetPoint" />
            <mxPoint y="-1" as="offset" />
          </mxGeometry>
        </mxCell>
        <mxCell id="uc_Chung_DangNhap" value="Đăng nhập" style="ellipse;whiteSpace=wrap;html=1;align=center;fillColor=#e6e6e6;fontSize=17;fontStyle=0" parent="1" vertex="1">
          <mxGeometry x="414" y="704" width="160" height="80" as="geometry" />
        </mxCell>
        <mxCell id="uc_Guest_DangKy" value="Đăng ký" style="ellipse;whiteSpace=wrap;html=1;align=center;fontSize=17;fontStyle=0" parent="1" vertex="1">
          <mxGeometry x="199.5" y="283" width="127" height="39" as="geometry" />
        </mxCell>
        <mxCell id="uc_KH_XemDuyetSP" value="Xem Sản phẩm" style="ellipse;whiteSpace=wrap;html=1;align=center;fontSize=17;fontStyle=0" parent="1" vertex="1">
          <mxGeometry x="199.5" y="69" width="112.5" height="54" as="geometry" />
        </mxCell>
        <mxCell id="uc_KH_TimKiemLocSP" value="Tìm kiếm &amp;amp; Lọc Sản phẩm" style="ellipse;whiteSpace=wrap;html=1;align=center;fontSize=17;fontStyle=0" parent="1" vertex="1">
          <mxGeometry x="189" y="146" width="151" height="49" as="geometry" />
        </mxCell>
        <mxCell id="uc_KH_QuanLyGioHang" value="Quản lý Giỏ hàng" style="ellipse;whiteSpace=wrap;html=1;align=center;fontSize=17;fontStyle=0" parent="1" vertex="1">
          <mxGeometry x="-312" y="593" width="138" height="46" as="geometry" />
        </mxCell>
        <mxCell id="uc_KH_QuanLyYeuThich" value="Quản lý Danh sách Yêu thích" style="ellipse;whiteSpace=wrap;html=1;align=center;fontSize=17;fontStyle=0" parent="1" vertex="1">
          <mxGeometry x="-330" y="720" width="122" height="74" as="geometry" />
        </mxCell>
        <mxCell id="uc_KH_DatHangTheoDoi" value="Đặt hàng &amp;amp; Theo dõi Đơn hàng" style="ellipse;whiteSpace=wrap;html=1;align=center;fontSize=17;fontStyle=0" parent="1" vertex="1">
          <mxGeometry x="-275" y="861" width="134" height="74" as="geometry" />
        </mxCell>
        <mxCell id="uc_KH_ApDungMaGiamGia" value="Áp dụng Mã giảm giá" style="ellipse;whiteSpace=wrap;html=1;align=center;fillColor=#dae8fc;fontSize=17;fontStyle=0" parent="1" vertex="1">
          <mxGeometry x="-505" y="876" width="140" height="70" as="geometry" />
        </mxCell>
        <mxCell id="uc_KH_ChonPhuongThucThanhToan" value="Chọn Phương thức Thanh toán" style="ellipse;whiteSpace=wrap;html=1;align=center;fillColor=#dae8fc;fontSize=17;fontStyle=0" parent="1" vertex="1">
          <mxGeometry x="-325" y="1004" width="140" height="70" as="geometry" />
        </mxCell>
        <mxCell id="uc_KH_ChonDiaChiGiaoHang" value="Chọn Địa chỉ Giao hàng" style="ellipse;whiteSpace=wrap;html=1;align=center;fillColor=#dae8fc;fontSize=17;fontStyle=0" parent="1" vertex="1">
          <mxGeometry x="-454" y="964.5" width="140" height="70" as="geometry" />
        </mxCell>
        <mxCell id="uc_KH_DanhGiaBinhLuan" value="Đánh giá sản phẩm" style="ellipse;whiteSpace=wrap;html=1;align=center;fontSize=17;fontStyle=0" parent="1" vertex="1">
          <mxGeometry x="289" y="861" width="160" height="80" as="geometry" />
        </mxCell>
        <mxCell id="uc_KH_BaoCaoBinhLuan" value="Báo cáo đánh giá vi phạm" style="ellipse;whiteSpace=wrap;html=1;align=center;fontSize=17;fontStyle=0" parent="1" vertex="1">
          <mxGeometry x="640" y="1063.5" width="160" height="80" as="geometry" />
        </mxCell>
        <mxCell id="uc_KH_YeuCauTraHang" value="Yêu cầu Trả hàng" style="ellipse;whiteSpace=wrap;html=1;align=center;fontSize=17;fontStyle=0" parent="1" vertex="1">
          <mxGeometry x="752" y="671" width="160" height="80" as="geometry" />
        </mxCell>
        <mxCell id="uc_KH_MiniGame" value="Tham gia Mini Game (Nhận Coupon)" style="ellipse;whiteSpace=wrap;html=1;align=center;fontSize=17;fontStyle=0" parent="1" vertex="1">
          <mxGeometry x="442" y="1089" width="160" height="80" as="geometry" />
        </mxCell>
        <mxCell id="uc_KH_TuongTacChatbot" value="Tương tác Chatbot" style="ellipse;whiteSpace=wrap;html=1;align=center;fontSize=17;fontStyle=0" parent="1" vertex="1">
          <mxGeometry x="193" y="222" width="155" height="45" as="geometry" />
        </mxCell>
        <mxCell id="uc_QT_QLDanhMuc" value="Quản lý Danh mục Sản phẩm" style="ellipse;whiteSpace=wrap;html=1;align=center;fontSize=17;fontStyle=0" parent="1" vertex="1">
          <mxGeometry x="2393" y="182" width="180" height="80" as="geometry" />
        </mxCell>
        <mxCell id="uc_QT_QLSanPham" value="Quản lý Sản phẩm" style="ellipse;whiteSpace=wrap;html=1;align=center;fontSize=17;fontStyle=0" parent="1" vertex="1">
          <mxGeometry x="2990" y="77" width="161" height="57" as="geometry" />
        </mxCell>
        <mxCell id="uc_QT_QLBinhLuan" value="Quản lý Đánh giá&amp;nbsp;" style="ellipse;whiteSpace=wrap;html=1;align=center;fontSize=17;fontStyle=0" parent="1" vertex="1">
          <mxGeometry x="2806" y="326" width="173" height="80" as="geometry" />
        </mxCell>
        <mxCell id="uc_QT_QLDonHang" value="Quản lý Đơn hàng" style="ellipse;whiteSpace=wrap;html=1;align=center;fontSize=17;fontStyle=0" parent="1" vertex="1">
          <mxGeometry x="2689.5" y="530" width="180" height="80" as="geometry" />
        </mxCell>
        <mxCell id="uc_QT_QLNguoiDung" value="Quản lý Người dùng" style="ellipse;whiteSpace=wrap;html=1;align=center;fontSize=17;fontStyle=0" parent="1" vertex="1">
          <mxGeometry x="2592" y="954.5" width="180" height="80" as="geometry" />
        </mxCell>
        <mxCell id="uc_QT_QLCoupon" value="Quản lý Phiếu giảm giá" style="ellipse;whiteSpace=wrap;html=1;align=center;fontSize=17;fontStyle=0" parent="1" vertex="1">
          <mxGeometry x="2462" y="1072" width="180" height="80" as="geometry" />
        </mxCell>
        <mxCell id="uc_QT_QLChatbotAI" value="Quản lý Chatbot &amp;amp; Gợi ý AI" style="ellipse;whiteSpace=wrap;html=1;align=center;fontSize=17;fontStyle=0" parent="1" vertex="1">
          <mxGeometry x="2078" y="720" width="180" height="80" as="geometry" />
        </mxCell>
        <mxCell id="assoc_Guest_XemDuyetSP" style="edgeStyle=none;html=1;endArrow=none;endFill=0;fontSize=17;fontStyle=0" parent="1" target="uc_KH_XemDuyetSP" edge="1" />
        <mxCell id="assoc_Guest_TimKiemLocSP" style="edgeStyle=none;html=1;endArrow=none;endFill=0;fontSize=17;fontStyle=0" parent="1" target="uc_KH_TimKiemLocSP" edge="1" />
        <mxCell id="assoc_Guest_TuongTacChatbot" style="edgeStyle=none;html=1;endArrow=none;endFill=0;fontSize=17;fontStyle=0" parent="1" target="uc_KH_TuongTacChatbot" edge="1" />
        <mxCell id="assoc_Guest_GuiLienHe" style="edgeStyle=none;html=1;endArrow=none;endFill=0;fontSize=17;fontStyle=0" parent="1" edge="1" />
        <mxCell id="assoc_Guest_DangKy" style="edgeStyle=none;html=1;endArrow=none;endFill=0;fontSize=17;fontStyle=0" parent="1" target="uc_Guest_DangKy" edge="1" />
        <mxCell id="assoc_Guest_DangNhap" style="edgeStyle=none;html=1;endArrow=none;endFill=0;fontSize=17;fontStyle=0" parent="1" target="uc_Chung_DangNhap" edge="1" />
        <mxCell id="assoc_KH_1" style="edgeStyle=none;html=1;endArrow=none;endFill=0;fontSize=17;fontStyle=0" parent="1" target="uc_KH_XemDuyetSP" edge="1" />
        <mxCell id="assoc_KH_2" style="edgeStyle=none;html=1;endArrow=none;endFill=0;fontSize=17;fontStyle=0" parent="1" target="uc_KH_TimKiemLocSP" edge="1" />
        <mxCell id="assoc_KH_3" style="edgeStyle=none;html=1;endArrow=none;endFill=0;fontSize=17;fontStyle=0" parent="1" target="uc_KH_QuanLyGioHang" edge="1" />
        <mxCell id="assoc_KH_4" style="edgeStyle=none;html=1;endArrow=none;endFill=0;fontSize=17;fontStyle=0" parent="1" target="uc_KH_QuanLyYeuThich" edge="1" />
        <mxCell id="assoc_KH_5" style="edgeStyle=none;html=1;endArrow=none;endFill=0;fontSize=17;fontStyle=0" parent="1" target="uc_KH_DatHangTheoDoi" edge="1" />
        <mxCell id="assoc_KH_6" style="edgeStyle=none;html=1;endArrow=none;endFill=0;fontSize=17;fontStyle=0" parent="1" target="uc_KH_DanhGiaBinhLuan" edge="1" />
        <mxCell id="assoc_KH_7" style="edgeStyle=none;html=1;endArrow=none;endFill=0;fontSize=17;fontStyle=0" parent="1" target="uc_KH_BaoCaoBinhLuan" edge="1" />
        <mxCell id="assoc_KH_8" style="edgeStyle=none;html=1;endArrow=none;endFill=0;fontSize=17;fontStyle=0" parent="1" target="uc_KH_YeuCauTraHang" edge="1" />
        <mxCell id="assoc_KH_9" style="edgeStyle=none;html=1;endArrow=none;endFill=0;fontSize=17;fontStyle=0" parent="1" target="uc_KH_MiniGame" edge="1" />
        <mxCell id="assoc_KH_10" style="edgeStyle=none;html=1;endArrow=none;endFill=0;fontSize=17;fontStyle=0" parent="1" target="uc_KH_TuongTacChatbot" edge="1" />
        <mxCell id="assoc_KH_DangNhap" style="edgeStyle=none;html=1;endArrow=none;endFill=0;fontSize=17;fontStyle=0" parent="1" target="uc_Chung_DangNhap" edge="1" />
        <mxCell id="assoc_QT_1" style="edgeStyle=none;html=1;endArrow=none;endFill=0;fontSize=17;fontStyle=0" parent="1" target="uc_QT_QLDanhMuc" edge="1" />
        <mxCell id="assoc_QT_2" style="edgeStyle=none;html=1;endArrow=none;endFill=0;fontSize=17;fontStyle=0" parent="1" target="uc_QT_QLSanPham" edge="1" />
        <mxCell id="assoc_QT_3" style="edgeStyle=none;html=1;endArrow=none;endFill=0;fontSize=17;fontStyle=0" parent="1" target="uc_QT_QLBinhLuan" edge="1" />
        <mxCell id="assoc_QT_4" style="edgeStyle=none;html=1;endArrow=none;endFill=0;fontSize=17;fontStyle=0" parent="1" target="uc_QT_QLDonHang" edge="1" />
        <mxCell id="assoc_QT_5" style="edgeStyle=none;html=1;endArrow=none;endFill=0;fontSize=17;fontStyle=0" parent="1" target="uc_QT_QLNguoiDung" edge="1" />
        <mxCell id="assoc_QT_6" style="edgeStyle=none;html=1;endArrow=none;endFill=0;fontSize=17;fontStyle=0" parent="1" target="uc_QT_QLCoupon" edge="1" />
        <mxCell id="assoc_QT_7" style="edgeStyle=none;html=1;endArrow=none;endFill=0;fontSize=17;fontStyle=0" parent="1" target="uc_QT_QLMiniGame" edge="1" />
        <mxCell id="assoc_QT_8" style="edgeStyle=none;html=1;endArrow=none;endFill=0;fontSize=17;fontStyle=0" parent="1" target="uc_QT_QLChatbotAI" edge="1" />
        <mxCell id="assoc_QT_DangNhap" style="edgeStyle=none;html=1;endArrow=none;endFill=0;fontSize=17;fontStyle=0" parent="1" target="uc_Chung_DangNhap" edge="1" />
        <mxCell id="inc_KH_GioHang_Auth" value="&amp;lt;&amp;lt;include&amp;gt;&amp;gt;" style="edgeStyle=none;html=1;endArrow=open;dashed=1;endFill=0;align=center;verticalAlign=middle;fontSize=17;fontStyle=0" parent="1" source="uc_KH_QuanLyGioHang" target="uc_Chung_DangNhap" edge="1">
          <mxGeometry relative="1" as="geometry" />
        </mxCell>
        <mxCell id="inc_KH_YeuThich_Auth" value="&amp;lt;&amp;lt;include&amp;gt;&amp;gt;" style="edgeStyle=none;html=1;endArrow=open;dashed=1;endFill=0;align=center;verticalAlign=middle;fontSize=17;fontStyle=0" parent="1" source="uc_KH_QuanLyYeuThich" target="uc_Chung_DangNhap" edge="1">
          <mxGeometry relative="1" as="geometry" />
        </mxCell>
        <mxCell id="inc_KH_DatHang_Auth" value="&amp;lt;&amp;lt;include&amp;gt;&amp;gt;" style="edgeStyle=none;html=1;endArrow=open;dashed=1;endFill=0;align=center;verticalAlign=middle;fontSize=17;fontStyle=0" parent="1" source="uc_KH_DatHangTheoDoi" target="uc_Chung_DangNhap" edge="1">
          <mxGeometry relative="1" as="geometry" />
        </mxCell>
        <mxCell id="inc_KH_TraHang_Auth" value="&amp;lt;&amp;lt;include&amp;gt;&amp;gt;" style="edgeStyle=none;html=1;endArrow=open;dashed=1;endFill=0;align=center;verticalAlign=middle;fontSize=17;fontStyle=0" parent="1" source="uc_KH_YeuCauTraHang" target="uc_Chung_DangNhap" edge="1">
          <mxGeometry relative="1" as="geometry" />
        </mxCell>
        <mxCell id="inc_QT_QLBinhLuan_Auth" value="&amp;lt;&amp;lt;include&amp;gt;&amp;gt;" style="edgeStyle=none;html=1;endArrow=open;dashed=1;endFill=0;align=center;verticalAlign=middle;fontSize=17;fontStyle=0" parent="1" source="uc_QT_QLBinhLuan" target="mXaBd0uo6MnOczMmo5w1-60" edge="1">
          <mxGeometry relative="1" as="geometry">
            <mxPoint x="2526" y="373" as="targetPoint" />
          </mxGeometry>
        </mxCell>
        <mxCell id="inc_QT_QLDonHang_Auth" value="&amp;lt;&amp;lt;include&amp;gt;&amp;gt;" style="edgeStyle=none;html=1;endArrow=open;dashed=1;endFill=0;align=center;verticalAlign=middle;fontSize=17;fontStyle=0" parent="1" source="uc_QT_QLDonHang" target="mXaBd0uo6MnOczMmo5w1-60" edge="1">
          <mxGeometry relative="1" as="geometry">
            <mxPoint x="2546" y="498" as="targetPoint" />
          </mxGeometry>
        </mxCell>
        <mxCell id="inc_QT_QLNguoiDung_Auth" value="&amp;lt;&amp;lt;include&amp;gt;&amp;gt;" style="edgeStyle=none;html=1;endArrow=open;dashed=1;endFill=0;align=center;verticalAlign=middle;fontSize=17;fontStyle=0" parent="1" source="uc_QT_QLNguoiDung" target="mXaBd0uo6MnOczMmo5w1-60" edge="1">
          <mxGeometry relative="1" as="geometry">
            <mxPoint x="2517" y="565" as="targetPoint" />
          </mxGeometry>
        </mxCell>
        <mxCell id="inc_QT_QLCoupon_Auth" value="&amp;lt;&amp;lt;include&amp;gt;&amp;gt;" style="edgeStyle=orthogonalEdgeStyle;html=1;endArrow=open;dashed=1;endFill=0;align=center;verticalAlign=middle;fontSize=17;fontStyle=0" parent="1" source="uc_QT_QLCoupon" target="mXaBd0uo6MnOczMmo5w1-60" edge="1">
          <mxGeometry relative="1" as="geometry">
            <mxPoint x="2526" y="644" as="targetPoint" />
          </mxGeometry>
        </mxCell>
        <mxCell id="inc_QT_QLChatbotAI_Auth" value="&amp;lt;&amp;lt;include&amp;gt;&amp;gt;" style="edgeStyle=orthogonalEdgeStyle;html=1;endArrow=open;dashed=1;endFill=0;align=center;verticalAlign=middle;fontSize=17;fontStyle=0" parent="1" source="uc_QT_QLChatbotAI" target="mXaBd0uo6MnOczMmo5w1-60" edge="1">
          <mxGeometry x="0.1549" relative="1" as="geometry">
            <mxPoint x="2502" y="716" as="targetPoint" />
            <mxPoint as="offset" />
          </mxGeometry>
        </mxCell>
        <mxCell id="ext_DatHang_ApDungCoupon" value="&amp;lt;&amp;lt;extend&amp;gt;&amp;gt;" style="edgeStyle=none;html=1;endArrow=open;dashed=1;endFill=0;align=center;verticalAlign=middle;fontSize=17;fontStyle=0" parent="1" source="uc_KH_ApDungMaGiamGia" target="uc_KH_DatHangTheoDoi" edge="1">
          <mxGeometry relative="1" as="geometry" />
        </mxCell>
        <mxCell id="ext_DatHang_ChonThanhToan" value="&amp;lt;&amp;lt;extend&amp;gt;&amp;gt;" style="edgeStyle=none;html=1;endArrow=open;dashed=1;endFill=0;align=center;verticalAlign=middle;fontSize=17;fontStyle=0" parent="1" source="uc_KH_ChonPhuongThucThanhToan" target="uc_KH_DatHangTheoDoi" edge="1">
          <mxGeometry relative="1" as="geometry" />
        </mxCell>
        <mxCell id="ext_DatHang_ChonDiaChi" value="&amp;lt;&amp;lt;extend&amp;gt;&amp;gt;" style="edgeStyle=none;html=1;endArrow=open;dashed=1;endFill=0;align=center;verticalAlign=middle;fontSize=17;fontStyle=0" parent="1" source="uc_KH_ChonDiaChiGiaoHang" target="uc_KH_DatHangTheoDoi" edge="1">
          <mxGeometry relative="1" as="geometry" />
        </mxCell>
        <mxCell id="bZHPp_LRqNR_1T2YL22--10" style="rounded=0;orthogonalLoop=1;jettySize=auto;html=1;exitX=1;exitY=0.3333333333333333;exitDx=0;exitDy=0;exitPerimeter=0;entryX=0;entryY=0.5;entryDx=0;entryDy=0;endArrow=none;startFill=0;fontSize=17;fontStyle=0" parent="1" source="bZHPp_LRqNR_1T2YL22--1" target="uc_KH_XemDuyetSP" edge="1">
          <mxGeometry relative="1" as="geometry" />
        </mxCell>
        <mxCell id="bZHPp_LRqNR_1T2YL22--11" style="rounded=0;orthogonalLoop=1;jettySize=auto;html=1;exitX=1;exitY=0.3333333333333333;exitDx=0;exitDy=0;exitPerimeter=0;entryX=0;entryY=0.5;entryDx=0;entryDy=0;endArrow=none;startFill=0;fontSize=17;fontStyle=0" parent="1" source="bZHPp_LRqNR_1T2YL22--1" target="uc_KH_TimKiemLocSP" edge="1">
          <mxGeometry relative="1" as="geometry" />
        </mxCell>
        <mxCell id="bZHPp_LRqNR_1T2YL22--12" style="rounded=0;orthogonalLoop=1;jettySize=auto;html=1;exitX=1;exitY=0.3333333333333333;exitDx=0;exitDy=0;exitPerimeter=0;entryX=0;entryY=0.5;entryDx=0;entryDy=0;endArrow=none;startFill=0;fontSize=17;fontStyle=0" parent="1" source="bZHPp_LRqNR_1T2YL22--1" target="uc_Guest_DangKy" edge="1">
          <mxGeometry relative="1" as="geometry" />
        </mxCell>
        <mxCell id="dsfzU4F2nD2IxD1ETmy1-1" style="rounded=0;orthogonalLoop=1;jettySize=auto;html=1;exitX=1;exitY=0.3333333333333333;exitDx=0;exitDy=0;exitPerimeter=0;endArrow=none;startFill=0;fontSize=17;fontStyle=0" edge="1" parent="1" source="bZHPp_LRqNR_1T2YL22--1" target="uc_KH_TuongTacChatbot">
          <mxGeometry relative="1" as="geometry" />
        </mxCell>
        <mxCell id="bZHPp_LRqNR_1T2YL22--1" value="Guest" style="shape=umlActor;verticalLabelPosition=bottom;verticalAlign=top;html=1;outlineConnect=0;fontSize=17;fontStyle=0" parent="1" vertex="1">
          <mxGeometry x="-38" y="152" width="30" height="60" as="geometry" />
        </mxCell>
        <mxCell id="bZHPp_LRqNR_1T2YL22--7" style="rounded=0;orthogonalLoop=1;jettySize=auto;html=1;exitX=0.5;exitY=0.5;exitDx=0;exitDy=0;exitPerimeter=0;fontSize=17;fontStyle=0" parent="1" source="bZHPp_LRqNR_1T2YL22--2" target="bZHPp_LRqNR_1T2YL22--1" edge="1">
          <mxGeometry relative="1" as="geometry">
            <mxPoint x="-21.29411764704855" y="237.6507460650464" as="targetPoint" />
          </mxGeometry>
        </mxCell>
        <mxCell id="bZHPp_LRqNR_1T2YL22--14" style="rounded=0;orthogonalLoop=1;jettySize=auto;html=1;exitX=0;exitY=0.3333333333333333;exitDx=0;exitDy=0;exitPerimeter=0;endArrow=none;startFill=0;fontSize=17;fontStyle=0" parent="1" source="bZHPp_LRqNR_1T2YL22--2" target="uc_KH_QuanLyGioHang" edge="1">
          <mxGeometry relative="1" as="geometry" />
        </mxCell>
        <mxCell id="bZHPp_LRqNR_1T2YL22--15" style="rounded=0;orthogonalLoop=1;jettySize=auto;html=1;exitX=0;exitY=0.3333333333333333;exitDx=0;exitDy=0;exitPerimeter=0;endArrow=none;startFill=0;fontSize=17;fontStyle=0" parent="1" source="bZHPp_LRqNR_1T2YL22--2" target="uc_KH_QuanLyYeuThich" edge="1">
          <mxGeometry relative="1" as="geometry" />
        </mxCell>
        <mxCell id="bZHPp_LRqNR_1T2YL22--16" style="rounded=0;orthogonalLoop=1;jettySize=auto;html=1;exitX=0;exitY=0.3333333333333333;exitDx=0;exitDy=0;exitPerimeter=0;endArrow=none;startFill=0;fontSize=17;fontStyle=0" parent="1" source="bZHPp_LRqNR_1T2YL22--2" target="uc_KH_DatHangTheoDoi" edge="1">
          <mxGeometry relative="1" as="geometry" />
        </mxCell>
        <mxCell id="bZHPp_LRqNR_1T2YL22--17" style="rounded=0;orthogonalLoop=1;jettySize=auto;html=1;exitX=1;exitY=0.3333333333333333;exitDx=0;exitDy=0;exitPerimeter=0;entryX=0;entryY=0.5;entryDx=0;entryDy=0;endArrow=none;startFill=0;fontSize=17;fontStyle=0" parent="1" source="bZHPp_LRqNR_1T2YL22--2" target="uc_KH_DanhGiaBinhLuan" edge="1">
          <mxGeometry relative="1" as="geometry" />
        </mxCell>
        <mxCell id="bZHPp_LRqNR_1T2YL22--18" style="rounded=0;orthogonalLoop=1;jettySize=auto;html=1;exitX=1;exitY=0.3333333333333333;exitDx=0;exitDy=0;exitPerimeter=0;entryX=0;entryY=0.5;entryDx=0;entryDy=0;endArrow=none;startFill=0;edgeStyle=orthogonalEdgeStyle;fontSize=17;fontStyle=0" parent="1" source="bZHPp_LRqNR_1T2YL22--2" target="uc_KH_MiniGame" edge="1">
          <mxGeometry relative="1" as="geometry">
            <Array as="points">
              <mxPoint x="-8" y="1129" />
            </Array>
          </mxGeometry>
        </mxCell>
        <mxCell id="bZHPp_LRqNR_1T2YL22--19" style="edgeStyle=orthogonalEdgeStyle;rounded=0;orthogonalLoop=1;jettySize=auto;html=1;exitX=1;exitY=0.3333333333333333;exitDx=0;exitDy=0;exitPerimeter=0;entryX=0.5;entryY=1;entryDx=0;entryDy=0;endArrow=none;startFill=0;fontSize=17;fontStyle=0" parent="1" source="bZHPp_LRqNR_1T2YL22--2" target="uc_KH_BaoCaoBinhLuan" edge="1">
          <mxGeometry relative="1" as="geometry">
            <Array as="points">
              <mxPoint x="-8" y="1194" />
              <mxPoint x="696" y="1194" />
            </Array>
          </mxGeometry>
        </mxCell>
        <mxCell id="bZHPp_LRqNR_1T2YL22--20" style="edgeStyle=orthogonalEdgeStyle;rounded=0;orthogonalLoop=1;jettySize=auto;html=1;exitX=1;exitY=0.3333333333333333;exitDx=0;exitDy=0;exitPerimeter=0;entryX=0.5;entryY=1;entryDx=0;entryDy=0;endArrow=none;startFill=0;fontSize=17;fontStyle=0" parent="1" source="bZHPp_LRqNR_1T2YL22--2" target="uc_KH_YeuCauTraHang" edge="1">
          <mxGeometry relative="1" as="geometry">
            <Array as="points">
              <mxPoint x="-8" y="1194" />
              <mxPoint x="832" y="1194" />
            </Array>
          </mxGeometry>
        </mxCell>
        <mxCell id="bZHPp_LRqNR_1T2YL22--2" value="User" style="shape=umlActor;verticalLabelPosition=bottom;verticalAlign=top;html=1;outlineConnect=0;fontSize=17;fontStyle=0" parent="1" vertex="1">
          <mxGeometry x="-38" y="681" width="30" height="60" as="geometry" />
        </mxCell>
        <mxCell id="bZHPp_LRqNR_1T2YL22--21" style="rounded=0;orthogonalLoop=1;jettySize=auto;html=1;exitX=1;exitY=0.3333333333333333;exitDx=0;exitDy=0;exitPerimeter=0;endArrow=none;startFill=0;fontSize=17;fontStyle=0" parent="1" source="bZHPp_LRqNR_1T2YL22--3" target="uc_QT_QLDanhMuc" edge="1">
          <mxGeometry relative="1" as="geometry" />
        </mxCell>
        <mxCell id="bZHPp_LRqNR_1T2YL22--22" style="rounded=0;orthogonalLoop=1;jettySize=auto;html=1;exitX=1;exitY=0.3333333333333333;exitDx=0;exitDy=0;exitPerimeter=0;endArrow=none;startFill=0;fontSize=17;fontStyle=0" parent="1" source="bZHPp_LRqNR_1T2YL22--3" target="uc_QT_QLSanPham" edge="1">
          <mxGeometry relative="1" as="geometry" />
        </mxCell>
        <mxCell id="bZHPp_LRqNR_1T2YL22--23" style="rounded=0;orthogonalLoop=1;jettySize=auto;html=1;exitX=1;exitY=0.3333333333333333;exitDx=0;exitDy=0;exitPerimeter=0;endArrow=none;startFill=0;fontSize=17;fontStyle=0" parent="1" source="bZHPp_LRqNR_1T2YL22--3" target="uc_QT_QLBinhLuan" edge="1">
          <mxGeometry relative="1" as="geometry" />
        </mxCell>
        <mxCell id="bZHPp_LRqNR_1T2YL22--24" style="rounded=0;orthogonalLoop=1;jettySize=auto;html=1;exitX=1;exitY=0.3333333333333333;exitDx=0;exitDy=0;exitPerimeter=0;endArrow=none;startFill=0;fontSize=17;fontStyle=0" parent="1" source="bZHPp_LRqNR_1T2YL22--3" target="uc_QT_QLDonHang" edge="1">
          <mxGeometry relative="1" as="geometry" />
        </mxCell>
        <mxCell id="bZHPp_LRqNR_1T2YL22--25" style="rounded=0;orthogonalLoop=1;jettySize=auto;html=1;exitX=1;exitY=0.3333333333333333;exitDx=0;exitDy=0;exitPerimeter=0;endArrow=none;startFill=0;fontSize=17;fontStyle=0" parent="1" source="bZHPp_LRqNR_1T2YL22--3" target="uc_QT_QLNguoiDung" edge="1">
          <mxGeometry relative="1" as="geometry" />
        </mxCell>
        <mxCell id="bZHPp_LRqNR_1T2YL22--26" style="rounded=0;orthogonalLoop=1;jettySize=auto;html=1;exitX=1;exitY=0.3333333333333333;exitDx=0;exitDy=0;exitPerimeter=0;endArrow=none;startFill=0;fontSize=17;fontStyle=0" parent="1" source="bZHPp_LRqNR_1T2YL22--3" target="uc_QT_QLCoupon" edge="1">
          <mxGeometry relative="1" as="geometry" />
        </mxCell>
        <mxCell id="bZHPp_LRqNR_1T2YL22--28" style="rounded=0;orthogonalLoop=1;jettySize=auto;html=1;endArrow=none;startFill=0;exitX=0;exitY=0.3333333333333333;exitDx=0;exitDy=0;exitPerimeter=0;fontSize=17;fontStyle=0" parent="1" source="bZHPp_LRqNR_1T2YL22--3" target="uc_QT_QLChatbotAI" edge="1">
          <mxGeometry relative="1" as="geometry">
            <mxPoint x="2306" y="565" as="sourcePoint" />
          </mxGeometry>
        </mxCell>
        <mxCell id="bZHPp_LRqNR_1T2YL22--3" value="&amp;nbsp;Admin&amp;nbsp;&amp;nbsp;" style="shape=umlActor;verticalLabelPosition=bottom;verticalAlign=top;html=1;outlineConnect=0;fontSize=17;fontStyle=0" parent="1" vertex="1">
          <mxGeometry x="2306" y="540" width="30" height="60" as="geometry" />
        </mxCell>
        <mxCell id="alZd-eIXHh8OQlJvzOjG-1" value="Quên mật khẩu" style="ellipse;whiteSpace=wrap;html=1;align=center;fillColor=#dae8fc;strokeColor=#6c8ebf;fontSize=17;fontStyle=0" parent="1" vertex="1">
          <mxGeometry x="664" y="581" width="147" height="42" as="geometry" />
        </mxCell>
        <mxCell id="alZd-eIXHh8OQlJvzOjG-2" value="&amp;lt;&amp;lt;extend&amp;gt;&amp;gt;" style="edgeStyle=none;html=1;endArrow=open;dashed=1;endFill=0;align=center;verticalAlign=middle;fontSize=17;fontStyle=0" parent="1" source="alZd-eIXHh8OQlJvzOjG-1" target="uc_Chung_DangNhap" edge="1">
          <mxGeometry x="0.0011" y="-1" relative="1" as="geometry">
            <mxPoint x="1" as="offset" />
            <mxPoint x="686" y="585" as="sourcePoint" />
            <mxPoint x="243" y="483" as="targetPoint" />
          </mxGeometry>
        </mxCell>
        <mxCell id="alZd-eIXHh8OQlJvzOjG-3" value="Đổi mật khẩu" style="ellipse;whiteSpace=wrap;html=1;align=center;fillColor=#dae8fc;strokeColor=#6c8ebf;fontSize=17;fontStyle=0" parent="1" vertex="1">
          <mxGeometry x="227" y="502" width="113" height="54" as="geometry" />
        </mxCell>
        <mxCell id="alZd-eIXHh8OQlJvzOjG-4" value="&amp;lt;&amp;lt;extend&amp;gt;&amp;gt;" style="edgeStyle=none;html=1;endArrow=open;dashed=1;endFill=0;align=center;verticalAlign=middle;fontSize=17;fontStyle=0" parent="1" source="alZd-eIXHh8OQlJvzOjG-3" target="mXaBd0uo6MnOczMmo5w1-23" edge="1">
          <mxGeometry x="0.0011" y="-1" relative="1" as="geometry">
            <mxPoint x="1" as="offset" />
            <mxPoint x="599" y="792" as="sourcePoint" />
            <mxPoint x="144" y="657" as="targetPoint" />
          </mxGeometry>
        </mxCell>
        <mxCell id="mXaBd0uo6MnOczMmo5w1-4" value="Xem chi tiết Sản phẩm" style="ellipse;whiteSpace=wrap;html=1;align=center;fillColor=#dae8fc;strokeColor=#6c8ebf;fontSize=17;fontStyle=0" parent="1" vertex="1">
          <mxGeometry x="464.5" y="56" width="148" height="53.5" as="geometry" />
        </mxCell>
        <mxCell id="mXaBd0uo6MnOczMmo5w1-5" value="&amp;lt;&amp;lt;extend&amp;gt;&amp;gt;" style="edgeStyle=none;html=1;endArrow=open;dashed=1;endFill=0;align=center;verticalAlign=middle;entryX=1;entryY=0.5;entryDx=0;entryDy=0;fontSize=17;fontStyle=0" parent="1" source="mXaBd0uo6MnOczMmo5w1-4" target="uc_KH_XemDuyetSP" edge="1">
          <mxGeometry x="0.002" relative="1" as="geometry">
            <mxPoint x="895" y="-313" as="sourcePoint" />
            <mxPoint x="661" y="152" as="targetPoint" />
            <mxPoint as="offset" />
          </mxGeometry>
        </mxCell>
        <mxCell id="mXaBd0uo6MnOczMmo5w1-6" value="Nhập từ khóa cần tìm" style="ellipse;whiteSpace=wrap;html=1;align=center;fillColor=#dae8fc;strokeColor=#6c8ebf;fontSize=17;fontStyle=0" parent="1" vertex="1">
          <mxGeometry x="470" y="124" width="137" height="47" as="geometry" />
        </mxCell>
        <mxCell id="mXaBd0uo6MnOczMmo5w1-7" value="Chọn điều kiện cần lọc" style="ellipse;whiteSpace=wrap;html=1;align=center;fillColor=#dae8fc;strokeColor=#6c8ebf;fontSize=17;fontStyle=0" parent="1" vertex="1">
          <mxGeometry x="475.5" y="189" width="132" height="42" as="geometry" />
        </mxCell>
        <mxCell id="mXaBd0uo6MnOczMmo5w1-10" value="&amp;lt;&amp;lt;extend&amp;gt;&amp;gt;" style="edgeStyle=none;html=1;endArrow=open;dashed=1;endFill=0;align=center;verticalAlign=middle;exitX=0;exitY=0.5;exitDx=0;exitDy=0;fontSize=17;fontStyle=0" parent="1" source="mXaBd0uo6MnOczMmo5w1-6" target="uc_KH_TimKiemLocSP" edge="1">
          <mxGeometry x="0.002" relative="1" as="geometry">
            <mxPoint x="426" y="113" as="sourcePoint" />
            <mxPoint x="340" y="114" as="targetPoint" />
            <mxPoint as="offset" />
          </mxGeometry>
        </mxCell>
        <mxCell id="mXaBd0uo6MnOczMmo5w1-11" value="&amp;lt;&amp;lt;extend&amp;gt;&amp;gt;" style="edgeStyle=none;html=1;endArrow=open;dashed=1;endFill=0;align=center;verticalAlign=middle;entryX=1;entryY=0.5;entryDx=0;entryDy=0;exitX=0;exitY=0.5;exitDx=0;exitDy=0;fontSize=17;fontStyle=0" parent="1" source="mXaBd0uo6MnOczMmo5w1-7" target="uc_KH_TimKiemLocSP" edge="1">
          <mxGeometry x="0.002" relative="1" as="geometry">
            <mxPoint x="436" y="123" as="sourcePoint" />
            <mxPoint x="350" y="124" as="targetPoint" />
            <mxPoint as="offset" />
          </mxGeometry>
        </mxCell>
        <mxCell id="mXaBd0uo6MnOczMmo5w1-12" value="Nhập các thông tin đăng ký" style="ellipse;whiteSpace=wrap;html=1;align=center;fillColor=#dae8fc;strokeColor=#6c8ebf;fontSize=17;fontStyle=0" parent="1" vertex="1">
          <mxGeometry x="453" y="339" width="138" height="54" as="geometry" />
        </mxCell>
        <mxCell id="mXaBd0uo6MnOczMmo5w1-13" value="Xác thực đăng ký" style="ellipse;whiteSpace=wrap;html=1;align=center;fillColor=#dae8fc;strokeColor=#6c8ebf;fontSize=17;fontStyle=0" parent="1" vertex="1">
          <mxGeometry x="208" y="383" width="132" height="42" as="geometry" />
        </mxCell>
        <mxCell id="mXaBd0uo6MnOczMmo5w1-15" value="Đăng ký bằng Google/Facebook" style="ellipse;whiteSpace=wrap;html=1;align=center;fillColor=#dae8fc;strokeColor=#6c8ebf;fontSize=17;fontStyle=0" parent="1" vertex="1">
          <mxGeometry x="4" y="348" width="130" height="57" as="geometry" />
        </mxCell>
        <mxCell id="mXaBd0uo6MnOczMmo5w1-16" value="&amp;lt;&amp;lt;extend&amp;gt;&amp;gt;" style="edgeStyle=none;html=1;endArrow=open;dashed=1;endFill=0;align=center;verticalAlign=middle;entryX=0;entryY=1;entryDx=0;entryDy=0;fontSize=17;fontStyle=0" parent="1" source="mXaBd0uo6MnOczMmo5w1-15" target="uc_Guest_DangKy" edge="1">
          <mxGeometry x="0.002" relative="1" as="geometry">
            <mxPoint x="453" y="277" as="sourcePoint" />
            <mxPoint x="340" y="238" as="targetPoint" />
            <mxPoint as="offset" />
          </mxGeometry>
        </mxCell>
        <mxCell id="mXaBd0uo6MnOczMmo5w1-17" value="&amp;lt;&amp;lt;include&amp;gt;&amp;gt;" style="edgeStyle=none;html=1;endArrow=open;dashed=1;endFill=0;align=center;verticalAlign=middle;fontSize=17;fontStyle=0" parent="1" source="mXaBd0uo6MnOczMmo5w1-13" target="mXaBd0uo6MnOczMmo5w1-12" edge="1">
          <mxGeometry x="0.0019" relative="1" as="geometry">
            <mxPoint x="149" y="372" as="sourcePoint" />
            <mxPoint x="222" y="319" as="targetPoint" />
            <mxPoint as="offset" />
          </mxGeometry>
        </mxCell>
        <mxCell id="mXaBd0uo6MnOczMmo5w1-18" value="&amp;lt;&amp;lt;extend&amp;gt;&amp;gt;" style="edgeStyle=none;html=1;endArrow=open;dashed=1;endFill=0;align=center;verticalAlign=middle;fontSize=17;fontStyle=0" parent="1" source="mXaBd0uo6MnOczMmo5w1-12" target="uc_Guest_DangKy" edge="1">
          <mxGeometry x="0.002" relative="1" as="geometry">
            <mxPoint x="276" y="382" as="sourcePoint" />
            <mxPoint x="326" y="313" as="targetPoint" />
            <mxPoint as="offset" />
          </mxGeometry>
        </mxCell>
        <mxCell id="mXaBd0uo6MnOczMmo5w1-19" value="Nhập thông tin đăng nhập" style="ellipse;whiteSpace=wrap;html=1;align=center;fillColor=#dae8fc;strokeColor=#6c8ebf;fontSize=17;fontStyle=0" parent="1" vertex="1">
          <mxGeometry x="356" y="508" width="163" height="55" as="geometry" />
        </mxCell>
        <mxCell id="mXaBd0uo6MnOczMmo5w1-20" value="Đăng nhập bằng Google/Facebook" style="ellipse;whiteSpace=wrap;html=1;align=center;fillColor=#dae8fc;strokeColor=#6c8ebf;fontSize=17;fontStyle=0" parent="1" vertex="1">
          <mxGeometry x="544" y="503" width="163" height="55" as="geometry" />
        </mxCell>
        <mxCell id="mXaBd0uo6MnOczMmo5w1-21" value="&amp;lt;&amp;lt;extend&amp;gt;&amp;gt;" style="edgeStyle=none;html=1;endArrow=open;dashed=1;endFill=0;align=center;verticalAlign=middle;fontSize=17;fontStyle=0" parent="1" source="mXaBd0uo6MnOczMmo5w1-19" target="uc_Chung_DangNhap" edge="1">
          <mxGeometry x="0.002" relative="1" as="geometry">
            <mxPoint x="619" y="523" as="sourcePoint" />
            <mxPoint x="295" y="335" as="targetPoint" />
            <mxPoint as="offset" />
          </mxGeometry>
        </mxCell>
        <mxCell id="mXaBd0uo6MnOczMmo5w1-22" value="&amp;lt;&amp;lt;extend&amp;gt;&amp;gt;" style="edgeStyle=none;html=1;endArrow=open;dashed=1;endFill=0;align=center;verticalAlign=middle;fontSize=17;fontStyle=0" parent="1" source="mXaBd0uo6MnOczMmo5w1-20" target="uc_Chung_DangNhap" edge="1">
          <mxGeometry x="0.002" relative="1" as="geometry">
            <mxPoint x="593" y="512" as="sourcePoint" />
            <mxPoint x="713" y="683" as="targetPoint" />
            <mxPoint as="offset" />
          </mxGeometry>
        </mxCell>
        <mxCell id="mXaBd0uo6MnOczMmo5w1-23" value="Quản lý thông tin cá nhân" style="ellipse;whiteSpace=wrap;html=1;align=center;fontSize=17;fontStyle=0" parent="1" vertex="1">
          <mxGeometry x="133" y="600" width="163" height="55" as="geometry" />
        </mxCell>
        <mxCell id="mXaBd0uo6MnOczMmo5w1-24" value="Cập nhật thông tin cá nhân" style="ellipse;whiteSpace=wrap;html=1;align=center;fillColor=#dae8fc;strokeColor=#6c8ebf;fontSize=17;fontStyle=0" parent="1" vertex="1">
          <mxGeometry x="100" y="492" width="114" height="69" as="geometry" />
        </mxCell>
        <mxCell id="mXaBd0uo6MnOczMmo5w1-25" value="Cập nhật địa chỉ nhận hàng" style="ellipse;whiteSpace=wrap;html=1;align=center;fillColor=#dae8fc;strokeColor=#6c8ebf;fontSize=17;fontStyle=0" parent="1" vertex="1">
          <mxGeometry x="-12" y="508" width="94" height="73" as="geometry" />
        </mxCell>
        <mxCell id="mXaBd0uo6MnOczMmo5w1-26" value="&amp;lt;&amp;lt;extend&amp;gt;&amp;gt;" style="edgeStyle=none;html=1;endArrow=open;dashed=1;endFill=0;align=center;verticalAlign=middle;fontSize=17;fontStyle=0" parent="1" source="mXaBd0uo6MnOczMmo5w1-24" target="mXaBd0uo6MnOczMmo5w1-23" edge="1">
          <mxGeometry x="0.0011" y="-1" relative="1" as="geometry">
            <mxPoint x="1" as="offset" />
            <mxPoint x="-337" y="707" as="sourcePoint" />
            <mxPoint x="-232" y="704" as="targetPoint" />
          </mxGeometry>
        </mxCell>
        <mxCell id="mXaBd0uo6MnOczMmo5w1-27" value="&amp;lt;&amp;lt;extend&amp;gt;&amp;gt;" style="edgeStyle=none;html=1;endArrow=open;dashed=1;endFill=0;align=center;verticalAlign=middle;fontSize=17;fontStyle=0" parent="1" source="mXaBd0uo6MnOczMmo5w1-25" target="mXaBd0uo6MnOczMmo5w1-23" edge="1">
          <mxGeometry x="0.0011" y="-1" relative="1" as="geometry">
            <mxPoint x="1" as="offset" />
            <mxPoint x="-304" y="748" as="sourcePoint" />
            <mxPoint x="-181" y="752" as="targetPoint" />
          </mxGeometry>
        </mxCell>
        <mxCell id="mXaBd0uo6MnOczMmo5w1-28" value="&amp;lt;&amp;lt;include&amp;gt;&amp;gt;" style="edgeStyle=none;html=1;endArrow=open;dashed=1;endFill=0;align=center;verticalAlign=middle;fontSize=17;fontStyle=0" parent="1" source="mXaBd0uo6MnOczMmo5w1-23" target="uc_Chung_DangNhap" edge="1">
          <mxGeometry x="0.0011" y="-1" relative="1" as="geometry">
            <mxPoint x="1" as="offset" />
            <mxPoint x="310" y="604" as="sourcePoint" />
            <mxPoint x="461" y="720" as="targetPoint" />
          </mxGeometry>
        </mxCell>
        <mxCell id="mXaBd0uo6MnOczMmo5w1-31" value="Nhập nội dung cần hỗ trợ" style="ellipse;whiteSpace=wrap;html=1;align=center;fillColor=#dae8fc;strokeColor=#6c8ebf;fontSize=17;fontStyle=0" parent="1" vertex="1">
          <mxGeometry x="471" y="248" width="141" height="66" as="geometry" />
        </mxCell>
        <mxCell id="mXaBd0uo6MnOczMmo5w1-33" value="&amp;lt;&amp;lt;extend&amp;gt;&amp;gt;" style="edgeStyle=none;html=1;endArrow=open;dashed=1;endFill=0;align=center;verticalAlign=middle;fontSize=17;fontStyle=0" parent="1" source="mXaBd0uo6MnOczMmo5w1-31" target="uc_KH_TuongTacChatbot" edge="1">
          <mxGeometry x="0.0011" y="-1" relative="1" as="geometry">
            <mxPoint x="1" as="offset" />
            <mxPoint x="626" y="212" as="sourcePoint" />
            <mxPoint x="716" y="252" as="targetPoint" />
          </mxGeometry>
        </mxCell>
        <mxCell id="mXaBd0uo6MnOczMmo5w1-34" value="Thêm sản phẩm vào danh sách yêu thích" style="ellipse;whiteSpace=wrap;html=1;align=center;fillColor=#dae8fc;fontSize=17;fontStyle=0" parent="1" vertex="1">
          <mxGeometry x="-580" y="667" width="153" height="81" as="geometry" />
        </mxCell>
        <mxCell id="mXaBd0uo6MnOczMmo5w1-35" value="Xóa sản phẩm ra khỏi danh sách yêu thích" style="ellipse;whiteSpace=wrap;html=1;align=center;fillColor=#dae8fc;fontSize=17;fontStyle=0" parent="1" vertex="1">
          <mxGeometry x="-580" y="779" width="153" height="79" as="geometry" />
        </mxCell>
        <mxCell id="mXaBd0uo6MnOczMmo5w1-37" value="&amp;lt;&amp;lt;extend&amp;gt;&amp;gt;" style="edgeStyle=none;html=1;endArrow=open;dashed=1;endFill=0;align=center;verticalAlign=middle;fontSize=17;fontStyle=0" parent="1" source="mXaBd0uo6MnOczMmo5w1-34" target="uc_KH_QuanLyYeuThich" edge="1">
          <mxGeometry relative="1" as="geometry">
            <mxPoint x="-269" y="720" as="targetPoint" />
          </mxGeometry>
        </mxCell>
        <mxCell id="mXaBd0uo6MnOczMmo5w1-38" value="&amp;lt;&amp;lt;extend&amp;gt;&amp;gt;" style="edgeStyle=none;html=1;endArrow=open;dashed=1;endFill=0;align=center;verticalAlign=middle;fontSize=17;fontStyle=0" parent="1" source="mXaBd0uo6MnOczMmo5w1-35" target="uc_KH_QuanLyYeuThich" edge="1">
          <mxGeometry x="0.0042" relative="1" as="geometry">
            <mxPoint x="-421" y="743" as="targetPoint" />
            <mxPoint as="offset" />
          </mxGeometry>
        </mxCell>
        <mxCell id="mXaBd0uo6MnOczMmo5w1-40" value="Xóa sản phẩm ra khỏi giỏ hàng" style="ellipse;whiteSpace=wrap;html=1;align=center;fillColor=#dae8fc;fontSize=17;fontStyle=0" parent="1" vertex="1">
          <mxGeometry x="-190" y="473" width="141" height="72" as="geometry" />
        </mxCell>
        <mxCell id="mXaBd0uo6MnOczMmo5w1-41" value="Thêm sản phẩm vào giỏ hàng" style="ellipse;whiteSpace=wrap;html=1;align=center;fillColor=#dae8fc;fontSize=17;fontStyle=0" parent="1" vertex="1">
          <mxGeometry x="-505" y="512" width="128" height="69" as="geometry" />
        </mxCell>
        <mxCell id="mXaBd0uo6MnOczMmo5w1-42" value="Cập nhật số lượng sản phẩm" style="ellipse;whiteSpace=wrap;html=1;align=center;fillColor=#dae8fc;fontSize=17;fontStyle=0" parent="1" vertex="1">
          <mxGeometry x="-354" y="475" width="136" height="78" as="geometry" />
        </mxCell>
        <mxCell id="mXaBd0uo6MnOczMmo5w1-43" value="&amp;lt;&amp;lt;extend&amp;gt;&amp;gt;" style="edgeStyle=none;html=1;endArrow=open;dashed=1;endFill=0;align=center;verticalAlign=middle;fontSize=17;fontStyle=0" parent="1" source="mXaBd0uo6MnOczMmo5w1-40" target="uc_KH_QuanLyGioHang" edge="1">
          <mxGeometry relative="1" as="geometry">
            <mxPoint x="-529" y="461" as="targetPoint" />
          </mxGeometry>
        </mxCell>
        <mxCell id="mXaBd0uo6MnOczMmo5w1-44" value="&amp;lt;&amp;lt;extend&amp;gt;&amp;gt;" style="edgeStyle=none;html=1;endArrow=open;dashed=1;endFill=0;align=center;verticalAlign=middle;fontSize=17;fontStyle=0" parent="1" source="mXaBd0uo6MnOczMmo5w1-41" target="uc_KH_QuanLyGioHang" edge="1">
          <mxGeometry relative="1" as="geometry">
            <mxPoint x="-438" y="479" as="targetPoint" />
          </mxGeometry>
        </mxCell>
        <mxCell id="mXaBd0uo6MnOczMmo5w1-45" value="&amp;lt;&amp;lt;extend&amp;gt;&amp;gt;" style="edgeStyle=none;html=1;endArrow=open;dashed=1;endFill=0;align=center;verticalAlign=middle;fontSize=17;fontStyle=0" parent="1" source="mXaBd0uo6MnOczMmo5w1-42" target="uc_KH_QuanLyGioHang" edge="1">
          <mxGeometry relative="1" as="geometry">
            <mxPoint x="-491" y="481" as="targetPoint" />
          </mxGeometry>
        </mxCell>
        <mxCell id="mXaBd0uo6MnOczMmo5w1-46" value="Đánh giá số sao" style="ellipse;whiteSpace=wrap;html=1;align=center;fillColor=#dae8fc;fontSize=17;fontStyle=0" parent="1" vertex="1">
          <mxGeometry x="53" y="942" width="140" height="70" as="geometry" />
        </mxCell>
        <mxCell id="mXaBd0uo6MnOczMmo5w1-47" value="Đăng hình ảnh/video đánh giá sản phẩm" style="ellipse;whiteSpace=wrap;html=1;align=center;fillColor=#dae8fc;fontSize=17;fontStyle=0" parent="1" vertex="1">
          <mxGeometry x="335" y="1004" width="140" height="70" as="geometry" />
        </mxCell>
        <mxCell id="mXaBd0uo6MnOczMmo5w1-48" value="Viết nội dung đánh giá" style="ellipse;whiteSpace=wrap;html=1;align=center;fillColor=#dae8fc;fontSize=17;fontStyle=0" parent="1" vertex="1">
          <mxGeometry x="152" y="1023" width="140" height="70" as="geometry" />
        </mxCell>
        <mxCell id="mXaBd0uo6MnOczMmo5w1-49" value="&amp;lt;&amp;lt;extend&amp;gt;&amp;gt;" style="edgeStyle=none;html=1;endArrow=open;dashed=1;endFill=0;align=center;verticalAlign=middle;fontSize=17;fontStyle=0" parent="1" source="mXaBd0uo6MnOczMmo5w1-46" target="uc_KH_DanhGiaBinhLuan" edge="1">
          <mxGeometry relative="1" as="geometry">
            <mxPoint x="247" y="965" as="targetPoint" />
          </mxGeometry>
        </mxCell>
        <mxCell id="mXaBd0uo6MnOczMmo5w1-50" value="&amp;lt;&amp;lt;extend&amp;gt;&amp;gt;" style="edgeStyle=none;html=1;endArrow=open;dashed=1;endFill=0;align=center;verticalAlign=middle;fontSize=17;fontStyle=0" parent="1" source="mXaBd0uo6MnOczMmo5w1-47" target="uc_KH_DanhGiaBinhLuan" edge="1">
          <mxGeometry relative="1" as="geometry">
            <mxPoint x="338" y="983" as="targetPoint" />
          </mxGeometry>
        </mxCell>
        <mxCell id="mXaBd0uo6MnOczMmo5w1-51" value="&amp;lt;&amp;lt;extend&amp;gt;&amp;gt;" style="edgeStyle=none;html=1;endArrow=open;dashed=1;endFill=0;align=center;verticalAlign=middle;fontSize=17;fontStyle=0" parent="1" source="mXaBd0uo6MnOczMmo5w1-48" target="uc_KH_DanhGiaBinhLuan" edge="1">
          <mxGeometry relative="1" as="geometry">
            <mxPoint x="285" y="985" as="targetPoint" />
          </mxGeometry>
        </mxCell>
        <mxCell id="mXaBd0uo6MnOczMmo5w1-52" value="Thêm lý do báo cáo" style="ellipse;whiteSpace=wrap;html=1;align=center;fillColor=#dae8fc;fontSize=17;fontStyle=0" parent="1" vertex="1">
          <mxGeometry x="671" y="907" width="140" height="70" as="geometry" />
        </mxCell>
        <mxCell id="mXaBd0uo6MnOczMmo5w1-53" value="&amp;lt;&amp;lt;extend&amp;gt;&amp;gt;" style="edgeStyle=none;html=1;endArrow=open;dashed=1;endFill=0;align=center;verticalAlign=middle;fontSize=17;fontStyle=0" parent="1" source="mXaBd0uo6MnOczMmo5w1-52" target="uc_KH_BaoCaoBinhLuan" edge="1">
          <mxGeometry relative="1" as="geometry">
            <mxPoint x="951" y="1233" as="targetPoint" />
          </mxGeometry>
        </mxCell>
        <mxCell id="mXaBd0uo6MnOczMmo5w1-54" value="Thêm lý do trả hàng" style="ellipse;whiteSpace=wrap;html=1;align=center;fillColor=#dae8fc;fontSize=17;fontStyle=0" parent="1" vertex="1">
          <mxGeometry x="840" y="542" width="140" height="70" as="geometry" />
        </mxCell>
        <mxCell id="mXaBd0uo6MnOczMmo5w1-55" value="&amp;lt;&amp;lt;extend&amp;gt;&amp;gt;" style="edgeStyle=none;html=1;endArrow=open;dashed=1;endFill=0;align=center;verticalAlign=middle;fontSize=17;fontStyle=0" parent="1" source="mXaBd0uo6MnOczMmo5w1-54" target="uc_KH_YeuCauTraHang" edge="1">
          <mxGeometry relative="1" as="geometry">
            <mxPoint x="989" y="987" as="targetPoint" />
          </mxGeometry>
        </mxCell>
        <mxCell id="mXaBd0uo6MnOczMmo5w1-56" value="Chọn phương thức hoàn tiền" style="ellipse;whiteSpace=wrap;html=1;align=center;fillColor=#dae8fc;fontSize=17;fontStyle=0" parent="1" vertex="1">
          <mxGeometry x="972" y="609" width="131" height="66" as="geometry" />
        </mxCell>
        <mxCell id="mXaBd0uo6MnOczMmo5w1-57" value="&amp;lt;&amp;lt;extend&amp;gt;&amp;gt;" style="edgeStyle=none;html=1;endArrow=open;dashed=1;endFill=0;align=center;verticalAlign=middle;fontSize=17;fontStyle=0" parent="1" source="mXaBd0uo6MnOczMmo5w1-56" target="uc_KH_YeuCauTraHang" edge="1">
          <mxGeometry relative="1" as="geometry">
            <mxPoint x="973" y="751" as="targetPoint" />
          </mxGeometry>
        </mxCell>
        <mxCell id="mXaBd0uo6MnOczMmo5w1-58" value="Cung cấp minh chứng trả hàng" style="ellipse;whiteSpace=wrap;html=1;align=center;fillColor=#dae8fc;fontSize=17;fontStyle=0" parent="1" vertex="1">
          <mxGeometry x="1014" y="700" width="131" height="66" as="geometry" />
        </mxCell>
        <mxCell id="mXaBd0uo6MnOczMmo5w1-59" value="&amp;lt;&amp;lt;extend&amp;gt;&amp;gt;" style="edgeStyle=none;html=1;endArrow=open;dashed=1;endFill=0;align=center;verticalAlign=middle;fontSize=17;fontStyle=0" parent="1" source="mXaBd0uo6MnOczMmo5w1-58" target="uc_KH_YeuCauTraHang" edge="1">
          <mxGeometry relative="1" as="geometry">
            <mxPoint x="923" y="784" as="targetPoint" />
          </mxGeometry>
        </mxCell>
        <mxCell id="mXaBd0uo6MnOczMmo5w1-60" value="Đăng nhập cho người quản trị&amp;nbsp;" style="ellipse;whiteSpace=wrap;html=1;align=center;fillColor=#e6e6e6;fontSize=17;fontStyle=0" parent="1" vertex="1">
          <mxGeometry x="3042" y="546" width="117" height="84" as="geometry" />
        </mxCell>
        <mxCell id="mXaBd0uo6MnOczMmo5w1-64" value="Thêm mới danh mục" style="ellipse;whiteSpace=wrap;html=1;align=center;fillColor=#dae8fc;fontSize=17;fontStyle=0" parent="1" vertex="1">
          <mxGeometry x="2184" y="109" width="137" height="64" as="geometry" />
        </mxCell>
        <mxCell id="mXaBd0uo6MnOczMmo5w1-65" value="&amp;lt;&amp;lt;extend&amp;gt;&amp;gt;" style="edgeStyle=none;html=1;endArrow=open;dashed=1;endFill=0;align=center;verticalAlign=middle;fontSize=17;fontStyle=0" parent="1" source="mXaBd0uo6MnOczMmo5w1-64" target="uc_QT_QLDanhMuc" edge="1">
          <mxGeometry relative="1" as="geometry">
            <mxPoint x="2630" y="181" as="targetPoint" />
          </mxGeometry>
        </mxCell>
        <mxCell id="mXaBd0uo6MnOczMmo5w1-66" value="Cập nhật danh mục" style="ellipse;whiteSpace=wrap;html=1;align=center;fillColor=#dae8fc;fontSize=17;fontStyle=0" parent="1" vertex="1">
          <mxGeometry x="2344" y="56" width="137" height="64" as="geometry" />
        </mxCell>
        <mxCell id="mXaBd0uo6MnOczMmo5w1-67" value="&amp;lt;&amp;lt;extend&amp;gt;&amp;gt;" style="edgeStyle=none;html=1;endArrow=open;dashed=1;endFill=0;align=center;verticalAlign=middle;fontSize=17;fontStyle=0" parent="1" source="mXaBd0uo6MnOczMmo5w1-66" target="uc_QT_QLDanhMuc" edge="1">
          <mxGeometry relative="1" as="geometry">
            <mxPoint x="2640" y="191" as="targetPoint" />
          </mxGeometry>
        </mxCell>
        <mxCell id="mXaBd0uo6MnOczMmo5w1-68" value="Bật/tắt trạng thái danh mục" style="ellipse;whiteSpace=wrap;html=1;align=center;fillColor=#dae8fc;fontSize=17;fontStyle=0" parent="1" vertex="1">
          <mxGeometry x="2530" y="62" width="149" height="62" as="geometry" />
        </mxCell>
        <mxCell id="mXaBd0uo6MnOczMmo5w1-69" value="&amp;lt;&amp;lt;extend&amp;gt;&amp;gt;" style="edgeStyle=none;html=1;endArrow=open;dashed=1;endFill=0;align=center;verticalAlign=middle;fontSize=17;fontStyle=0" parent="1" source="mXaBd0uo6MnOczMmo5w1-68" target="uc_QT_QLDanhMuc" edge="1">
          <mxGeometry relative="1" as="geometry">
            <mxPoint x="2743" y="307" as="targetPoint" />
          </mxGeometry>
        </mxCell>
        <mxCell id="mXaBd0uo6MnOczMmo5w1-70" value="Thêm mới sản phẩm" style="ellipse;whiteSpace=wrap;html=1;align=center;fillColor=#dae8fc;fontSize=17;fontStyle=0" parent="1" vertex="1">
          <mxGeometry x="2745" y="102" width="137" height="64" as="geometry" />
        </mxCell>
        <mxCell id="mXaBd0uo6MnOczMmo5w1-71" value="&amp;lt;&amp;lt;extend&amp;gt;&amp;gt;" style="edgeStyle=none;html=1;endArrow=open;dashed=1;endFill=0;align=center;verticalAlign=middle;fontSize=17;fontStyle=0" parent="1" source="mXaBd0uo6MnOczMmo5w1-70" target="uc_QT_QLSanPham" edge="1">
          <mxGeometry relative="1" as="geometry">
            <mxPoint x="3391" y="36" as="targetPoint" />
          </mxGeometry>
        </mxCell>
        <mxCell id="mXaBd0uo6MnOczMmo5w1-72" value="Cập nhật sản phẩm" style="ellipse;whiteSpace=wrap;html=1;align=center;fillColor=#dae8fc;fontSize=17;fontStyle=0" parent="1" vertex="1">
          <mxGeometry x="2829" width="137" height="64" as="geometry" />
        </mxCell>
        <mxCell id="mXaBd0uo6MnOczMmo5w1-73" value="&amp;lt;&amp;lt;extend&amp;gt;&amp;gt;" style="edgeStyle=none;html=1;endArrow=open;dashed=1;endFill=0;align=center;verticalAlign=middle;fontSize=17;fontStyle=0" parent="1" source="mXaBd0uo6MnOczMmo5w1-72" target="uc_QT_QLSanPham" edge="1">
          <mxGeometry relative="1" as="geometry">
            <mxPoint x="3442" y="22" as="targetPoint" />
          </mxGeometry>
        </mxCell>
        <mxCell id="mXaBd0uo6MnOczMmo5w1-74" value="Bật/tắt trạng thái của sản phẩm" style="ellipse;whiteSpace=wrap;html=1;align=center;fillColor=#dae8fc;fontSize=17;fontStyle=0" parent="1" vertex="1">
          <mxGeometry x="3005" y="-46" width="140" height="72" as="geometry" />
        </mxCell>
        <mxCell id="mXaBd0uo6MnOczMmo5w1-75" value="&amp;lt;&amp;lt;extend&amp;gt;&amp;gt;" style="edgeStyle=none;html=1;endArrow=open;dashed=1;endFill=0;align=center;verticalAlign=middle;fontSize=17;fontStyle=0" parent="1" source="mXaBd0uo6MnOczMmo5w1-74" target="uc_QT_QLSanPham" edge="1">
          <mxGeometry relative="1" as="geometry">
            <mxPoint x="3497" y="24" as="targetPoint" />
          </mxGeometry>
        </mxCell>
        <mxCell id="mXaBd0uo6MnOczMmo5w1-76" value="Xử lý các đánh giá bị báo cáo" style="ellipse;whiteSpace=wrap;html=1;align=center;fillColor=#dae8fc;fontSize=17;fontStyle=0" parent="1" vertex="1">
          <mxGeometry x="2659" y="446.5" width="137" height="64" as="geometry" />
        </mxCell>
        <mxCell id="mXaBd0uo6MnOczMmo5w1-77" value="&amp;lt;&amp;lt;extend&amp;gt;&amp;gt;" style="edgeStyle=none;html=1;endArrow=open;dashed=1;endFill=0;align=center;verticalAlign=middle;fontSize=17;fontStyle=0" parent="1" source="mXaBd0uo6MnOczMmo5w1-76" target="uc_QT_QLBinhLuan" edge="1">
          <mxGeometry relative="1" as="geometry">
            <mxPoint x="2755" y="666" as="targetPoint" />
          </mxGeometry>
        </mxCell>
        <mxCell id="mXaBd0uo6MnOczMmo5w1-82" value="Cập nhật trạng thái đơn hàng" style="ellipse;whiteSpace=wrap;html=1;align=center;fillColor=#dae8fc;fontSize=17;fontStyle=0" parent="1" vertex="1">
          <mxGeometry x="2507" y="606.5" width="159" height="63" as="geometry" />
        </mxCell>
        <mxCell id="mXaBd0uo6MnOczMmo5w1-83" value="&amp;lt;&amp;lt;extend&amp;gt;&amp;gt;" style="edgeStyle=none;html=1;endArrow=open;dashed=1;endFill=0;align=center;verticalAlign=middle;fontSize=17;fontStyle=0" parent="1" source="mXaBd0uo6MnOczMmo5w1-82" target="uc_QT_QLDonHang" edge="1">
          <mxGeometry relative="1" as="geometry">
            <mxPoint x="2818" y="689" as="targetPoint" />
          </mxGeometry>
        </mxCell>
        <mxCell id="mXaBd0uo6MnOczMmo5w1-84" value="Quản lý Trả hàng" style="ellipse;whiteSpace=wrap;html=1;align=center;fontSize=17;fontStyle=0" parent="1" vertex="1">
          <mxGeometry x="2576" y="709" width="180" height="80" as="geometry" />
        </mxCell>
        <mxCell id="mXaBd0uo6MnOczMmo5w1-85" style="rounded=0;orthogonalLoop=1;jettySize=auto;html=1;exitX=1;exitY=0.3333333333333333;exitDx=0;exitDy=0;exitPerimeter=0;endArrow=none;startFill=0;fontSize=17;fontStyle=0" parent="1" source="bZHPp_LRqNR_1T2YL22--3" target="mXaBd0uo6MnOczMmo5w1-84" edge="1">
          <mxGeometry relative="1" as="geometry">
            <mxPoint x="2346" y="570" as="sourcePoint" />
            <mxPoint x="2837" y="921" as="targetPoint" />
          </mxGeometry>
        </mxCell>
        <mxCell id="mXaBd0uo6MnOczMmo5w1-86" value="&amp;lt;&amp;lt;include&amp;gt;&amp;gt;" style="edgeStyle=none;html=1;endArrow=open;dashed=1;endFill=0;align=center;verticalAlign=middle;fontSize=17;fontStyle=0" parent="1" source="mXaBd0uo6MnOczMmo5w1-84" target="mXaBd0uo6MnOczMmo5w1-60" edge="1">
          <mxGeometry relative="1" as="geometry">
            <mxPoint x="2723" y="883" as="sourcePoint" />
            <mxPoint x="2527" y="575" as="targetPoint" />
          </mxGeometry>
        </mxCell>
        <mxCell id="mXaBd0uo6MnOczMmo5w1-87" value="Xử lý các đơn trả hàng" style="ellipse;whiteSpace=wrap;html=1;align=center;fillColor=#dae8fc;fontSize=17;fontStyle=0" parent="1" vertex="1">
          <mxGeometry x="2711" y="831" width="137" height="64" as="geometry" />
        </mxCell>
        <mxCell id="mXaBd0uo6MnOczMmo5w1-88" value="&amp;lt;&amp;lt;extend&amp;gt;&amp;gt;" style="edgeStyle=none;html=1;endArrow=open;dashed=1;endFill=0;align=center;verticalAlign=middle;fontSize=17;fontStyle=0" parent="1" source="mXaBd0uo6MnOczMmo5w1-87" target="mXaBd0uo6MnOczMmo5w1-84" edge="1">
          <mxGeometry relative="1" as="geometry">
            <mxPoint x="2938" y="716" as="targetPoint" />
          </mxGeometry>
        </mxCell>
        <mxCell id="mXaBd0uo6MnOczMmo5w1-89" value="" style="rounded=0;orthogonalLoop=1;jettySize=auto;html=1;exitX=1;exitY=0.3333333333333333;exitDx=0;exitDy=0;exitPerimeter=0;endArrow=none;startFill=0;fontSize=17;fontStyle=0" parent="1" source="bZHPp_LRqNR_1T2YL22--3" target="uc_QT_QLMiniGame" edge="1">
          <mxGeometry relative="1" as="geometry">
            <mxPoint x="2336" y="560" as="sourcePoint" />
            <mxPoint x="2288" y="1225" as="targetPoint" />
          </mxGeometry>
        </mxCell>
        <mxCell id="uc_QT_QLMiniGame" value="Quản lý chương trình giảm giá" style="ellipse;whiteSpace=wrap;html=1;align=center;fontSize=17;fontStyle=0" parent="1" vertex="1">
          <mxGeometry x="2204.75" y="1013.5" width="180" height="80" as="geometry" />
        </mxCell>
        <mxCell id="mXaBd0uo6MnOczMmo5w1-90" value="Khóa các tài khoản vi phạm" style="ellipse;whiteSpace=wrap;html=1;align=center;fillColor=#dae8fc;fontSize=17;fontStyle=0" parent="1" vertex="1">
          <mxGeometry x="2875" y="968.5" width="160" height="63" as="geometry" />
        </mxCell>
        <mxCell id="mXaBd0uo6MnOczMmo5w1-91" value="&amp;lt;&amp;lt;extend&amp;gt;&amp;gt;" style="edgeStyle=none;html=1;endArrow=open;dashed=1;endFill=0;align=center;verticalAlign=middle;fontSize=17;fontStyle=0" parent="1" source="mXaBd0uo6MnOczMmo5w1-90" target="uc_QT_QLNguoiDung" edge="1">
          <mxGeometry relative="1" as="geometry">
            <mxPoint x="2811" y="1060" as="targetPoint" />
          </mxGeometry>
        </mxCell>
        <mxCell id="mXaBd0uo6MnOczMmo5w1-92" value="Thêm mới phiếu giảm giá" style="ellipse;whiteSpace=wrap;html=1;align=center;fillColor=#dae8fc;fontSize=17;fontStyle=0" parent="1" vertex="1">
          <mxGeometry x="2411" y="1206" width="147" height="66" as="geometry" />
        </mxCell>
        <mxCell id="mXaBd0uo6MnOczMmo5w1-93" value="&amp;lt;&amp;lt;extend&amp;gt;&amp;gt;" style="edgeStyle=none;html=1;endArrow=open;dashed=1;endFill=0;align=center;verticalAlign=middle;fontSize=17;fontStyle=0" parent="1" source="mXaBd0uo6MnOczMmo5w1-92" target="uc_QT_QLCoupon" edge="1">
          <mxGeometry relative="1" as="geometry">
            <mxPoint x="2568.5" y="1334" as="targetPoint" />
          </mxGeometry>
        </mxCell>
        <mxCell id="mXaBd0uo6MnOczMmo5w1-94" value="Cập nhật phiếu giảm giá" style="ellipse;whiteSpace=wrap;html=1;align=center;fillColor=#dae8fc;fontSize=17;fontStyle=0" parent="1" vertex="1">
          <mxGeometry x="2576" y="1190" width="137" height="64" as="geometry" />
        </mxCell>
        <mxCell id="mXaBd0uo6MnOczMmo5w1-95" value="&amp;lt;&amp;lt;extend&amp;gt;&amp;gt;" style="edgeStyle=none;html=1;endArrow=open;dashed=1;endFill=0;align=center;verticalAlign=middle;fontSize=17;fontStyle=0" parent="1" source="mXaBd0uo6MnOczMmo5w1-94" target="uc_QT_QLCoupon" edge="1">
          <mxGeometry relative="1" as="geometry">
            <mxPoint x="2619.5" y="1320" as="targetPoint" />
          </mxGeometry>
        </mxCell>
        <mxCell id="mXaBd0uo6MnOczMmo5w1-96" value="Bật/tắt trạng thái của phiếu giảm giá" style="ellipse;whiteSpace=wrap;html=1;align=center;fillColor=#dae8fc;fontSize=17;fontStyle=0" parent="1" vertex="1">
          <mxGeometry x="2748" y="1156" width="165" height="72" as="geometry" />
        </mxCell>
        <mxCell id="mXaBd0uo6MnOczMmo5w1-97" value="&amp;lt;&amp;lt;extend&amp;gt;&amp;gt;" style="edgeStyle=none;html=1;endArrow=open;dashed=1;endFill=0;align=center;verticalAlign=middle;fontSize=17;fontStyle=0" parent="1" source="mXaBd0uo6MnOczMmo5w1-96" target="uc_QT_QLCoupon" edge="1">
          <mxGeometry relative="1" as="geometry">
            <mxPoint x="2675" y="1322" as="targetPoint" />
          </mxGeometry>
        </mxCell>
        <mxCell id="gRJiv3krc9PiSEIHghHX-1" value="&amp;lt;&amp;lt;include&amp;gt;&amp;gt;" style="edgeStyle=orthogonalEdgeStyle;html=1;endArrow=open;dashed=1;endFill=0;align=center;verticalAlign=middle;fontSize=17;fontStyle=0" parent="1" source="uc_QT_QLMiniGame" target="mXaBd0uo6MnOczMmo5w1-60" edge="1">
          <mxGeometry relative="1" as="geometry">
            <mxPoint x="2566" y="1395" as="targetPoint" />
            <mxPoint x="2673" y="2380" as="sourcePoint" />
          </mxGeometry>
        </mxCell>
        <mxCell id="gRJiv3krc9PiSEIHghHX-3" value="Thêm mới chương trình giảm giá" style="ellipse;whiteSpace=wrap;html=1;align=center;fillColor=#dae8fc;fontSize=17;fontStyle=0" parent="1" vertex="1">
          <mxGeometry x="1949.75" y="983" width="147" height="66" as="geometry" />
        </mxCell>
        <mxCell id="gRJiv3krc9PiSEIHghHX-4" value="&amp;lt;&amp;lt;extend&amp;gt;&amp;gt;" style="edgeStyle=none;html=1;endArrow=open;dashed=1;endFill=0;align=center;verticalAlign=middle;fontSize=17;fontStyle=0" parent="1" source="gRJiv3krc9PiSEIHghHX-3" target="uc_QT_QLMiniGame" edge="1">
          <mxGeometry relative="1" as="geometry">
            <mxPoint x="2373.25" y="1092.5" as="targetPoint" />
          </mxGeometry>
        </mxCell>
        <mxCell id="gRJiv3krc9PiSEIHghHX-5" value="Cập nhật chương trình giảm giá" style="ellipse;whiteSpace=wrap;html=1;align=center;fillColor=#dae8fc;fontSize=17;fontStyle=0" parent="1" vertex="1">
          <mxGeometry x="1933" y="1074" width="142.75" height="75.5" as="geometry" />
        </mxCell>
        <mxCell id="gRJiv3krc9PiSEIHghHX-6" value="&amp;lt;&amp;lt;extend&amp;gt;&amp;gt;" style="edgeStyle=none;html=1;endArrow=open;dashed=1;endFill=0;align=center;verticalAlign=middle;fontSize=17;fontStyle=0" parent="1" source="gRJiv3krc9PiSEIHghHX-5" target="uc_QT_QLMiniGame" edge="1">
          <mxGeometry relative="1" as="geometry">
            <mxPoint x="2426.25" y="1094.5" as="targetPoint" />
          </mxGeometry>
        </mxCell>
        <mxCell id="gRJiv3krc9PiSEIHghHX-7" value="Bật/tắt trạng thái của chương trình giảm giá" style="ellipse;whiteSpace=wrap;html=1;align=center;fillColor=#dae8fc;fontSize=17;fontStyle=0" parent="1" vertex="1">
          <mxGeometry x="2039.75" y="1143.5" width="173.25" height="84.5" as="geometry" />
        </mxCell>
        <mxCell id="gRJiv3krc9PiSEIHghHX-8" value="&amp;lt;&amp;lt;extend&amp;gt;&amp;gt;" style="edgeStyle=none;html=1;endArrow=open;dashed=1;endFill=0;align=center;verticalAlign=middle;fontSize=17;fontStyle=0" parent="1" source="gRJiv3krc9PiSEIHghHX-7" target="uc_QT_QLMiniGame" edge="1">
          <mxGeometry relative="1" as="geometry">
            <mxPoint x="2475.25" y="1081.5" as="targetPoint" />
          </mxGeometry>
        </mxCell>
        <mxCell id="gRJiv3krc9PiSEIHghHX-10" value="Áp dụng chương trình giảm giá cho sản phẩm" style="ellipse;whiteSpace=wrap;html=1;align=center;fillColor=#dae8fc;fontSize=17;fontStyle=0" parent="1" vertex="1">
          <mxGeometry x="2232.25" y="1143.5" width="165" height="72" as="geometry" />
        </mxCell>
        <mxCell id="gRJiv3krc9PiSEIHghHX-11" value="&amp;lt;&amp;lt;extend&amp;gt;&amp;gt;" style="edgeStyle=none;html=1;endArrow=open;dashed=1;endFill=0;align=center;verticalAlign=middle;fontSize=17;fontStyle=0" parent="1" source="gRJiv3krc9PiSEIHghHX-10" target="uc_QT_QLMiniGame" edge="1">
          <mxGeometry relative="1" as="geometry">
            <mxPoint x="2510.75" y="1032.5" as="targetPoint" />
          </mxGeometry>
        </mxCell>
        <mxCell id="gRJiv3krc9PiSEIHghHX-12" value="Bật/tắt bot cho đoạn chat" style="ellipse;whiteSpace=wrap;html=1;align=center;fillColor=#dae8fc;fontSize=17;fontStyle=0" parent="1" vertex="1">
          <mxGeometry x="1968" y="605" width="147" height="66" as="geometry" />
        </mxCell>
        <mxCell id="gRJiv3krc9PiSEIHghHX-13" value="&amp;lt;&amp;lt;extend&amp;gt;&amp;gt;" style="edgeStyle=none;html=1;endArrow=open;dashed=1;endFill=0;align=center;verticalAlign=middle;fontSize=17;fontStyle=0" parent="1" source="gRJiv3krc9PiSEIHghHX-12" target="uc_QT_QLChatbotAI" edge="1">
          <mxGeometry x="0.0304" y="5" relative="1" as="geometry">
            <mxPoint x="2104" y="795" as="targetPoint" />
            <mxPoint as="offset" />
          </mxGeometry>
        </mxCell>
        <mxCell id="gRJiv3krc9PiSEIHghHX-14" value="Train model gợi ý" style="ellipse;whiteSpace=wrap;html=1;align=center;fillColor=#dae8fc;fontSize=17;fontStyle=0" parent="1" vertex="1">
          <mxGeometry x="1816" y="794" width="147" height="66" as="geometry" />
        </mxCell>
        <mxCell id="gRJiv3krc9PiSEIHghHX-15" value="&amp;lt;&amp;lt;extend&amp;gt;&amp;gt;" style="edgeStyle=none;html=1;endArrow=open;dashed=1;endFill=0;align=center;verticalAlign=middle;fontSize=17;fontStyle=0" parent="1" source="gRJiv3krc9PiSEIHghHX-14" target="uc_QT_QLChatbotAI" edge="1">
          <mxGeometry x="0.0304" y="5" relative="1" as="geometry">
            <mxPoint x="2274" y="849" as="targetPoint" />
            <mxPoint as="offset" />
          </mxGeometry>
        </mxCell>
        <mxCell id="gRJiv3krc9PiSEIHghHX-18" value="Đổi model gợi ý" style="ellipse;whiteSpace=wrap;html=1;align=center;fillColor=#dae8fc;fontSize=17;fontStyle=0" parent="1" vertex="1">
          <mxGeometry x="1973" y="849" width="147" height="66" as="geometry" />
        </mxCell>
        <mxCell id="gRJiv3krc9PiSEIHghHX-19" value="&amp;lt;&amp;lt;extend&amp;gt;&amp;gt;" style="edgeStyle=none;html=1;endArrow=open;dashed=1;endFill=0;align=center;verticalAlign=middle;fontSize=17;fontStyle=0" parent="1" source="gRJiv3krc9PiSEIHghHX-18" target="uc_QT_QLChatbotAI" edge="1">
          <mxGeometry x="0.0304" y="5" relative="1" as="geometry">
            <mxPoint x="2455" y="875" as="targetPoint" />
            <mxPoint as="offset" />
          </mxGeometry>
        </mxCell>
        <mxCell id="gRJiv3krc9PiSEIHghHX-22" value="Phản hồi đoạn chat" style="ellipse;whiteSpace=wrap;html=1;align=center;fillColor=#dae8fc;fontSize=17;fontStyle=0" parent="1" vertex="1">
          <mxGeometry x="1821" y="700" width="147" height="66" as="geometry" />
        </mxCell>
        <mxCell id="gRJiv3krc9PiSEIHghHX-23" value="&amp;lt;&amp;lt;extend&amp;gt;&amp;gt;" style="edgeStyle=none;html=1;endArrow=open;dashed=1;endFill=0;align=center;verticalAlign=middle;fontSize=17;fontStyle=0" parent="1" source="gRJiv3krc9PiSEIHghHX-22" target="uc_QT_QLChatbotAI" edge="1">
          <mxGeometry x="0.0304" y="5" relative="1" as="geometry">
            <mxPoint x="2159" y="859" as="targetPoint" />
            <mxPoint x="2063" y="885" as="sourcePoint" />
            <mxPoint as="offset" />
          </mxGeometry>
        </mxCell>
        <mxCell id="gRJiv3krc9PiSEIHghHX-24" value="Thêm mới biến thể của sản phẩm" style="ellipse;whiteSpace=wrap;html=1;align=center;fillColor=#dae8fc;fontSize=17;fontStyle=0" parent="1" vertex="1">
          <mxGeometry x="3165" y="-17" width="146" height="75" as="geometry" />
        </mxCell>
        <mxCell id="gRJiv3krc9PiSEIHghHX-25" value="&amp;lt;&amp;lt;extend&amp;gt;&amp;gt;" style="edgeStyle=none;html=1;endArrow=open;dashed=1;endFill=0;align=center;verticalAlign=middle;fontSize=17;fontStyle=0" parent="1" source="gRJiv3krc9PiSEIHghHX-24" target="uc_QT_QLSanPham" edge="1">
          <mxGeometry relative="1" as="geometry">
            <mxPoint x="3568" y="203" as="targetPoint" />
          </mxGeometry>
        </mxCell>
        <mxCell id="gRJiv3krc9PiSEIHghHX-26" value="Cập nhật biến thể của sản phẩm" style="ellipse;whiteSpace=wrap;html=1;align=center;fillColor=#dae8fc;fontSize=17;fontStyle=0" parent="1" vertex="1">
          <mxGeometry x="3258" y="52" width="154" height="79" as="geometry" />
        </mxCell>
        <mxCell id="gRJiv3krc9PiSEIHghHX-27" value="&amp;lt;&amp;lt;extend&amp;gt;&amp;gt;" style="edgeStyle=none;html=1;endArrow=open;dashed=1;endFill=0;align=center;verticalAlign=middle;fontSize=17;fontStyle=0" parent="1" source="gRJiv3krc9PiSEIHghHX-26" target="uc_QT_QLSanPham" edge="1">
          <mxGeometry relative="1" as="geometry">
            <mxPoint x="3617" y="200" as="targetPoint" />
          </mxGeometry>
        </mxCell>
        <mxCell id="gRJiv3krc9PiSEIHghHX-28" value="Bật/tắt trạng thái của biến thể của sản phẩm" style="ellipse;whiteSpace=wrap;html=1;align=center;fillColor=#dae8fc;fontSize=17;fontStyle=0" parent="1" vertex="1">
          <mxGeometry x="3212" y="146" width="173" height="76" as="geometry" />
        </mxCell>
        <mxCell id="gRJiv3krc9PiSEIHghHX-29" value="&amp;lt;&amp;lt;extend&amp;gt;&amp;gt;" style="edgeStyle=none;html=1;endArrow=open;dashed=1;endFill=0;align=center;verticalAlign=middle;fontSize=17;fontStyle=0" parent="1" source="gRJiv3krc9PiSEIHghHX-28" target="uc_QT_QLSanPham" edge="1">
          <mxGeometry relative="1" as="geometry">
            <mxPoint x="3667" y="212" as="targetPoint" />
          </mxGeometry>
        </mxCell>
        <mxCell id="gRJiv3krc9PiSEIHghHX-30" value="Quản lý thuộc tính của sản phẩm" style="ellipse;whiteSpace=wrap;html=1;align=center;fontSize=17;fontStyle=0" parent="1" vertex="1">
          <mxGeometry x="3215" y="304" width="151" height="71.5" as="geometry" />
        </mxCell>
        <mxCell id="gRJiv3krc9PiSEIHghHX-31" style="rounded=0;orthogonalLoop=1;jettySize=auto;html=1;exitX=1;exitY=0.3333333333333333;exitDx=0;exitDy=0;exitPerimeter=0;endArrow=none;startFill=0;edgeStyle=orthogonalEdgeStyle;fontSize=17;fontStyle=0" parent="1" source="bZHPp_LRqNR_1T2YL22--3" target="gRJiv3krc9PiSEIHghHX-30" edge="1">
          <mxGeometry relative="1" as="geometry">
            <mxPoint x="2265" y="500" as="sourcePoint" />
            <mxPoint x="2613" y="110" as="targetPoint" />
            <Array as="points">
              <mxPoint x="2336" y="321" />
            </Array>
          </mxGeometry>
        </mxCell>
        <mxCell id="gRJiv3krc9PiSEIHghHX-32" value="&amp;lt;&amp;lt;include&amp;gt;&amp;gt;" style="edgeStyle=none;html=1;endArrow=open;dashed=1;endFill=0;align=center;verticalAlign=middle;fontSize=17;fontStyle=0" parent="1" source="gRJiv3krc9PiSEIHghHX-30" target="mXaBd0uo6MnOczMmo5w1-60" edge="1">
          <mxGeometry relative="1" as="geometry">
            <mxPoint x="3139" y="882" as="targetPoint" />
            <mxPoint x="3104" y="409" as="sourcePoint" />
          </mxGeometry>
        </mxCell>
        <mxCell id="gRJiv3krc9PiSEIHghHX-33" value="Thêm mới giá trị của thuộc tính" style="ellipse;whiteSpace=wrap;html=1;align=center;fillColor=#dae8fc;fontSize=17;fontStyle=0" parent="1" vertex="1">
          <mxGeometry x="3256" y="478.5" width="137" height="64" as="geometry" />
        </mxCell>
        <mxCell id="gRJiv3krc9PiSEIHghHX-34" value="&amp;lt;&amp;lt;extend&amp;gt;&amp;gt;" style="edgeStyle=none;html=1;endArrow=open;dashed=1;endFill=0;align=center;verticalAlign=middle;fontSize=17;fontStyle=0" parent="1" source="gRJiv3krc9PiSEIHghHX-33" target="gRJiv3krc9PiSEIHghHX-30" edge="1">
          <mxGeometry relative="1" as="geometry">
            <mxPoint x="3447" y="656.5" as="targetPoint" />
          </mxGeometry>
        </mxCell>
        <mxCell id="gRJiv3krc9PiSEIHghHX-35" value="Cập nhật giá trị của thuộc tính" style="ellipse;whiteSpace=wrap;html=1;align=center;fillColor=#dae8fc;fontSize=17;fontStyle=0" parent="1" vertex="1">
          <mxGeometry x="3406" y="486.5" width="137" height="64" as="geometry" />
        </mxCell>
        <mxCell id="gRJiv3krc9PiSEIHghHX-36" value="&amp;lt;&amp;lt;extend&amp;gt;&amp;gt;" style="edgeStyle=none;html=1;endArrow=open;dashed=1;endFill=0;align=center;verticalAlign=middle;fontSize=17;fontStyle=0" parent="1" source="gRJiv3krc9PiSEIHghHX-35" target="gRJiv3krc9PiSEIHghHX-30" edge="1">
          <mxGeometry relative="1" as="geometry">
            <mxPoint x="3480" y="655.5" as="targetPoint" />
          </mxGeometry>
        </mxCell>
        <mxCell id="gRJiv3krc9PiSEIHghHX-37" value="Xóa giá trị của thuộc tính" style="ellipse;whiteSpace=wrap;html=1;align=center;fillColor=#dae8fc;fontSize=17;fontStyle=0" parent="1" vertex="1">
          <mxGeometry x="3547" y="446.5" width="110" height="62" as="geometry" />
        </mxCell>
        <mxCell id="gRJiv3krc9PiSEIHghHX-38" value="&amp;lt;&amp;lt;extend&amp;gt;&amp;gt;" style="edgeStyle=none;html=1;endArrow=open;dashed=1;endFill=0;align=center;verticalAlign=middle;fontSize=17;fontStyle=0" parent="1" source="gRJiv3krc9PiSEIHghHX-37" target="gRJiv3krc9PiSEIHghHX-30" edge="1">
          <mxGeometry relative="1" as="geometry">
            <mxPoint x="3516" y="660.5" as="targetPoint" />
          </mxGeometry>
        </mxCell>
        <mxCell id="gRJiv3krc9PiSEIHghHX-39" value="Thêm mới thuộc tính" style="ellipse;whiteSpace=wrap;html=1;align=center;fillColor=#dae8fc;fontSize=17;fontStyle=0" parent="1" vertex="1">
          <mxGeometry x="3378" y="213.5" width="137" height="64" as="geometry" />
        </mxCell>
        <mxCell id="gRJiv3krc9PiSEIHghHX-40" value="&amp;lt;&amp;lt;extend&amp;gt;&amp;gt;" style="edgeStyle=none;html=1;endArrow=open;dashed=1;endFill=0;align=center;verticalAlign=middle;fontSize=17;fontStyle=0" parent="1" source="gRJiv3krc9PiSEIHghHX-39" target="gRJiv3krc9PiSEIHghHX-30" edge="1">
          <mxGeometry relative="1" as="geometry">
            <mxPoint x="3544" y="483.5" as="targetPoint" />
          </mxGeometry>
        </mxCell>
        <mxCell id="gRJiv3krc9PiSEIHghHX-41" value="Cập nhật thuộc tính" style="ellipse;whiteSpace=wrap;html=1;align=center;fillColor=#dae8fc;fontSize=17;fontStyle=0" parent="1" vertex="1">
          <mxGeometry x="3455" y="288.5" width="137" height="64" as="geometry" />
        </mxCell>
        <mxCell id="gRJiv3krc9PiSEIHghHX-42" value="&amp;lt;&amp;lt;extend&amp;gt;&amp;gt;" style="edgeStyle=none;html=1;endArrow=open;dashed=1;endFill=0;align=center;verticalAlign=middle;fontSize=17;fontStyle=0" parent="1" source="gRJiv3krc9PiSEIHghHX-41" target="gRJiv3krc9PiSEIHghHX-30" edge="1">
          <mxGeometry relative="1" as="geometry">
            <mxPoint x="3577" y="482.5" as="targetPoint" />
          </mxGeometry>
        </mxCell>
        <mxCell id="gRJiv3krc9PiSEIHghHX-43" value="Xóa thuộc tính" style="ellipse;whiteSpace=wrap;html=1;align=center;fillColor=#dae8fc;fontSize=17;fontStyle=0" parent="1" vertex="1">
          <mxGeometry x="3505" y="364.5" width="131" height="64" as="geometry" />
        </mxCell>
        <mxCell id="gRJiv3krc9PiSEIHghHX-44" value="&amp;lt;&amp;lt;extend&amp;gt;&amp;gt;" style="edgeStyle=none;html=1;endArrow=open;dashed=1;endFill=0;align=center;verticalAlign=middle;fontSize=17;fontStyle=0" parent="1" source="gRJiv3krc9PiSEIHghHX-43" target="gRJiv3krc9PiSEIHghHX-30" edge="1">
          <mxGeometry relative="1" as="geometry">
            <mxPoint x="3613" y="487.5" as="targetPoint" />
          </mxGeometry>
        </mxCell>
        <mxCell id="gRJiv3krc9PiSEIHghHX-45" value="Quản lý Banner" style="ellipse;whiteSpace=wrap;html=1;align=center;fontSize=17;fontStyle=0" parent="1" vertex="1">
          <mxGeometry x="3265" y="895" width="180" height="80" as="geometry" />
        </mxCell>
        <mxCell id="gRJiv3krc9PiSEIHghHX-46" value="&amp;lt;&amp;lt;include&amp;gt;&amp;gt;" style="edgeStyle=none;html=1;endArrow=open;dashed=1;endFill=0;align=center;verticalAlign=middle;fontSize=17;fontStyle=0" parent="1" source="gRJiv3krc9PiSEIHghHX-45" target="mXaBd0uo6MnOczMmo5w1-60" edge="1">
          <mxGeometry relative="1" as="geometry">
            <mxPoint x="3271" y="921" as="targetPoint" />
            <mxPoint x="2993" y="1243" as="sourcePoint" />
          </mxGeometry>
        </mxCell>
        <mxCell id="gRJiv3krc9PiSEIHghHX-47" style="rounded=0;orthogonalLoop=1;jettySize=auto;html=1;exitX=1;exitY=0.3333333333333333;exitDx=0;exitDy=0;exitPerimeter=0;endArrow=none;startFill=0;edgeStyle=orthogonalEdgeStyle;fontSize=17;fontStyle=0" parent="1" source="bZHPp_LRqNR_1T2YL22--3" target="gRJiv3krc9PiSEIHghHX-45" edge="1">
          <mxGeometry relative="1" as="geometry">
            <mxPoint x="2634" y="898" as="sourcePoint" />
            <mxPoint x="3040" y="1288" as="targetPoint" />
            <Array as="points">
              <mxPoint x="2336" y="914" />
            </Array>
          </mxGeometry>
        </mxCell>
        <mxCell id="gRJiv3krc9PiSEIHghHX-48" value="Thêm mới banner" style="ellipse;whiteSpace=wrap;html=1;align=center;fillColor=#dae8fc;fontSize=17;fontStyle=0" parent="1" vertex="1">
          <mxGeometry x="3395" y="778" width="137" height="64" as="geometry" />
        </mxCell>
        <mxCell id="gRJiv3krc9PiSEIHghHX-49" value="&amp;lt;&amp;lt;extend&amp;gt;&amp;gt;" style="edgeStyle=none;html=1;endArrow=open;dashed=1;endFill=0;align=center;verticalAlign=middle;fontSize=17;fontStyle=0" parent="1" source="gRJiv3krc9PiSEIHghHX-48" target="gRJiv3krc9PiSEIHghHX-45" edge="1">
          <mxGeometry relative="1" as="geometry">
            <mxPoint x="3726" y="1026" as="targetPoint" />
          </mxGeometry>
        </mxCell>
        <mxCell id="gRJiv3krc9PiSEIHghHX-50" value="Cập nhật banner" style="ellipse;whiteSpace=wrap;html=1;align=center;fillColor=#dae8fc;fontSize=17;fontStyle=0" parent="1" vertex="1">
          <mxGeometry x="3542" y="843" width="137" height="64" as="geometry" />
        </mxCell>
        <mxCell id="gRJiv3krc9PiSEIHghHX-51" value="&amp;lt;&amp;lt;extend&amp;gt;&amp;gt;" style="edgeStyle=none;html=1;endArrow=open;dashed=1;endFill=0;align=center;verticalAlign=middle;fontSize=17;fontStyle=0" parent="1" source="gRJiv3krc9PiSEIHghHX-50" target="gRJiv3krc9PiSEIHghHX-45" edge="1">
          <mxGeometry relative="1" as="geometry">
            <mxPoint x="3759" y="1025" as="targetPoint" />
          </mxGeometry>
        </mxCell>
        <mxCell id="gRJiv3krc9PiSEIHghHX-52" value="Bật/tắt trạng thái của banner" style="ellipse;whiteSpace=wrap;html=1;align=center;fillColor=#dae8fc;fontSize=17;fontStyle=0" parent="1" vertex="1">
          <mxGeometry x="3553" y="936" width="131" height="64" as="geometry" />
        </mxCell>
        <mxCell id="gRJiv3krc9PiSEIHghHX-53" value="&amp;lt;&amp;lt;extend&amp;gt;&amp;gt;" style="edgeStyle=none;html=1;endArrow=open;dashed=1;endFill=0;align=center;verticalAlign=middle;fontSize=17;fontStyle=0" parent="1" source="gRJiv3krc9PiSEIHghHX-52" target="gRJiv3krc9PiSEIHghHX-45" edge="1">
          <mxGeometry relative="1" as="geometry">
            <mxPoint x="3795" y="1030" as="targetPoint" />
          </mxGeometry>
        </mxCell>
        <mxCell id="oLXZdNb_yhyc7AZti9yH-1" value="Thống kê" style="ellipse;whiteSpace=wrap;html=1;align=center;fontSize=17;fontStyle=0" parent="1" vertex="1">
          <mxGeometry x="2075" y="404" width="158" height="65" as="geometry" />
        </mxCell>
        <mxCell id="oLXZdNb_yhyc7AZti9yH-2" value="Thống kê doanh thu" style="ellipse;whiteSpace=wrap;html=1;align=center;fillColor=#dae8fc;fontSize=17;fontStyle=0" parent="1" vertex="1">
          <mxGeometry x="1997" y="228" width="147" height="66" as="geometry" />
        </mxCell>
        <mxCell id="oLXZdNb_yhyc7AZti9yH-3" value="&amp;lt;&amp;lt;extend&amp;gt;&amp;gt;" style="edgeStyle=none;html=1;endArrow=open;dashed=1;endFill=0;align=center;verticalAlign=middle;fontSize=17;fontStyle=0" parent="1" source="oLXZdNb_yhyc7AZti9yH-2" target="oLXZdNb_yhyc7AZti9yH-1" edge="1">
          <mxGeometry x="0.0304" y="5" relative="1" as="geometry">
            <mxPoint x="2046.5" y="404" as="targetPoint" />
            <mxPoint as="offset" />
          </mxGeometry>
        </mxCell>
        <mxCell id="oLXZdNb_yhyc7AZti9yH-6" value="Theo dõi hiệu suất của mô hình" style="ellipse;whiteSpace=wrap;html=1;align=center;fillColor=#dae8fc;fontSize=17;fontStyle=0" parent="1" vertex="1">
          <mxGeometry x="2164" y="860" width="135" height="67" as="geometry" />
        </mxCell>
        <mxCell id="oLXZdNb_yhyc7AZti9yH-7" value="&amp;lt;&amp;lt;extend&amp;gt;&amp;gt;" style="edgeStyle=none;html=1;endArrow=open;dashed=1;endFill=0;align=center;verticalAlign=middle;fontSize=17;fontStyle=0" parent="1" source="oLXZdNb_yhyc7AZti9yH-6" target="uc_QT_QLChatbotAI" edge="1">
          <mxGeometry x="0.0304" y="5" relative="1" as="geometry">
            <mxPoint x="2639.5" y="948" as="targetPoint" />
            <mxPoint as="offset" />
          </mxGeometry>
        </mxCell>
        <mxCell id="oLXZdNb_yhyc7AZti9yH-8" value="Thống kê trả hàng" style="ellipse;whiteSpace=wrap;html=1;align=center;fillColor=#dae8fc;fontSize=17;fontStyle=0" parent="1" vertex="1">
          <mxGeometry x="1850" y="458" width="147" height="66" as="geometry" />
        </mxCell>
        <mxCell id="oLXZdNb_yhyc7AZti9yH-9" value="&amp;lt;&amp;lt;extend&amp;gt;&amp;gt;" style="edgeStyle=none;html=1;endArrow=open;dashed=1;endFill=0;align=center;verticalAlign=middle;fontSize=17;fontStyle=0" parent="1" source="oLXZdNb_yhyc7AZti9yH-8" target="oLXZdNb_yhyc7AZti9yH-1" edge="1">
          <mxGeometry x="0.0304" y="5" relative="1" as="geometry">
            <mxPoint x="2133" y="570" as="targetPoint" />
            <mxPoint as="offset" />
          </mxGeometry>
        </mxCell>
        <mxCell id="oLXZdNb_yhyc7AZti9yH-10" value="Thống kê sản phẩm" style="ellipse;whiteSpace=wrap;html=1;align=center;fillColor=#dae8fc;fontSize=17;fontStyle=0" parent="1" vertex="1">
          <mxGeometry x="1812" y="371" width="147" height="66" as="geometry" />
        </mxCell>
        <mxCell id="oLXZdNb_yhyc7AZti9yH-11" value="&amp;lt;&amp;lt;extend&amp;gt;&amp;gt;" style="edgeStyle=none;html=1;endArrow=open;dashed=1;endFill=0;align=center;verticalAlign=middle;fontSize=17;fontStyle=0" parent="1" source="oLXZdNb_yhyc7AZti9yH-10" target="oLXZdNb_yhyc7AZti9yH-1" edge="1">
          <mxGeometry x="0.0304" y="5" relative="1" as="geometry">
            <mxPoint x="2006" y="514" as="targetPoint" />
            <mxPoint as="offset" />
          </mxGeometry>
        </mxCell>
        <mxCell id="oLXZdNb_yhyc7AZti9yH-12" value="Thống kê người dùng" style="ellipse;whiteSpace=wrap;html=1;align=center;fillColor=#dae8fc;fontSize=17;fontStyle=0" parent="1" vertex="1">
          <mxGeometry x="1868.5" y="278" width="147" height="66" as="geometry" />
        </mxCell>
        <mxCell id="oLXZdNb_yhyc7AZti9yH-13" value="&amp;lt;&amp;lt;extend&amp;gt;&amp;gt;" style="edgeStyle=none;html=1;endArrow=open;dashed=1;endFill=0;align=center;verticalAlign=middle;fontSize=17;fontStyle=0" parent="1" source="oLXZdNb_yhyc7AZti9yH-12" target="oLXZdNb_yhyc7AZti9yH-1" edge="1">
          <mxGeometry x="0.0304" y="5" relative="1" as="geometry">
            <mxPoint x="2015.5" y="429" as="targetPoint" />
            <mxPoint as="offset" />
          </mxGeometry>
        </mxCell>
        <mxCell id="oLXZdNb_yhyc7AZti9yH-14" style="rounded=0;orthogonalLoop=1;jettySize=auto;html=1;endArrow=none;startFill=0;exitX=0;exitY=0.3333333333333333;exitDx=0;exitDy=0;exitPerimeter=0;fontSize=17;fontStyle=0" parent="1" source="bZHPp_LRqNR_1T2YL22--3" target="oLXZdNb_yhyc7AZti9yH-1" edge="1">
          <mxGeometry relative="1" as="geometry">
            <mxPoint x="2427" y="905" as="sourcePoint" />
            <mxPoint x="2253" y="1951" as="targetPoint" />
          </mxGeometry>
        </mxCell>
        <mxCell id="oLXZdNb_yhyc7AZti9yH-15" value="&amp;lt;&amp;lt;include&amp;gt;&amp;gt;" style="edgeStyle=orthogonalEdgeStyle;html=1;endArrow=open;dashed=1;endFill=0;align=center;verticalAlign=middle;fontSize=17;fontStyle=0" parent="1" source="oLXZdNb_yhyc7AZti9yH-1" target="mXaBd0uo6MnOczMmo5w1-60" edge="1">
          <mxGeometry x="-0.3055" relative="1" as="geometry">
            <mxPoint x="2402" y="1611" as="sourcePoint" />
            <mxPoint x="2721" y="1500" as="targetPoint" />
            <mxPoint as="offset" />
          </mxGeometry>
        </mxCell>
        <mxCell id="oLXZdNb_yhyc7AZti9yH-18" value="Xem thông tin và trạng thái đơn hàng" style="ellipse;whiteSpace=wrap;html=1;align=center;fillColor=#dae8fc;fontSize=17;fontStyle=0" parent="1" vertex="1">
          <mxGeometry x="-165" y="993" width="150" height="79" as="geometry" />
        </mxCell>
        <mxCell id="oLXZdNb_yhyc7AZti9yH-19" value="&amp;lt;&amp;lt;extend&amp;gt;&amp;gt;" style="edgeStyle=none;html=1;endArrow=open;dashed=1;endFill=0;align=center;verticalAlign=middle;fontSize=17;fontStyle=0" parent="1" source="oLXZdNb_yhyc7AZti9yH-18" target="uc_KH_DatHangTheoDoi" edge="1">
          <mxGeometry relative="1" as="geometry">
            <mxPoint x="-65" y="923" as="targetPoint" />
          </mxGeometry>
        </mxCell>
        <mxCell id="oLXZdNb_yhyc7AZti9yH-21" value="Phản hồi các đánh giá" style="ellipse;whiteSpace=wrap;html=1;align=center;fillColor=#dae8fc;fontSize=17;fontStyle=0" parent="1" vertex="1">
          <mxGeometry x="2907" y="221" width="137" height="64" as="geometry" />
        </mxCell>
        <mxCell id="oLXZdNb_yhyc7AZti9yH-22" value="&amp;lt;&amp;lt;extend&amp;gt;&amp;gt;" style="edgeStyle=none;html=1;endArrow=open;dashed=1;endFill=0;align=center;verticalAlign=middle;fontSize=17;fontStyle=0" parent="1" source="oLXZdNb_yhyc7AZti9yH-21" target="uc_QT_QLBinhLuan" edge="1">
          <mxGeometry relative="1" as="geometry">
            <mxPoint x="2861" y="506" as="targetPoint" />
          </mxGeometry>
        </mxCell>
      </root>
    </mxGraphModel>
  </diagram>
</mxfile>
